<?xml version="1.0" standalone="no"?>
<!DOCTYPE svg PUBLIC "-//W3C//DTD SVG 20010904//EN"
 "http://www.w3.org/TR/2001/REC-SVG-20010904/DTD/svg10.dtd">
<svg version="1.0" xmlns="http://www.w3.org/2000/svg"
 width="1600.000000pt" height="870.000000pt" viewBox="0 0 1600.000000 870.000000"
 preserveAspectRatio="xMidYMid meet">

<g transform="translate(0.000000,870.000000) scale(0.100000,-0.100000)"
fill="#000000" stroke="none">
<path d="M0 8506 l0 -194 36 -7 c20 -3 48 -11 63 -17 24 -10 25 -11 6 -18 -11
-5 -39 -9 -62 -9 -38 -1 -43 -4 -43 -25 0 -22 5 -24 72 -31 40 -3 81 -13 91
-20 18 -13 17 -14 -17 -20 -20 -4 -36 -10 -36 -14 0 -14 183 -140 225 -154 17
-6 42 -23 57 -39 34 -37 55 -35 112 8 26 20 63 40 82 45 30 9 34 14 34 43 0
38 6 47 26 39 10 -4 14 -25 14 -79 0 -69 -2 -75 -27 -91 -43 -27 -52 -44 -53
-94 0 -40 5 -50 45 -91 82 -84 54 -127 -72 -113 -37 5 -74 7 -81 6 -19 -3 -42
18 -42 40 0 10 -10 21 -23 25 -38 12 -304 187 -352 231 -59 55 -55 69 -55
-194 l0 -239 93 3 c256 9 235 11 242 -14 3 -14 13 -23 25 -23 11 0 20 -7 20
-15 0 -24 -57 -19 -70 5 -12 23 -30 27 -30 7 0 -24 -33 -45 -94 -61 -93 -24
-97 -37 -13 -51 20 -3 37 -9 37 -13 -1 -17 -51 -52 -76 -53 -16 -1 -39 -4 -52
-8 -20 -5 -14 -10 42 -35 36 -15 64 -32 61 -36 -3 -5 1 -11 7 -13 7 -3 1 -6
-14 -6 -17 -1 -29 -8 -33 -21 -3 -11 -10 -20 -14 -20 -4 0 -18 -9 -31 -20 -13
-11 -36 -20 -52 -20 -21 0 -28 -5 -28 -19 0 -11 -6 -21 -12 -24 -31 -11 10
-21 109 -27 117 -8 148 -16 177 -49 10 -11 23 -18 27 -15 5 3 9 -1 9 -8 0 -8
-11 -14 -27 -13 -21 0 -28 -6 -35 -30 -11 -38 -2 -89 19 -106 8 -8 24 -32 33
-54 21 -49 36 -62 75 -67 19 -2 31 -9 33 -21 7 -36 -8 -82 -37 -116 -58 -67
-37 -113 41 -90 40 11 38 11 38 -2 0 -6 -16 -29 -35 -52 -30 -34 -35 -48 -35
-90 0 -39 4 -50 19 -54 14 -4 20 -17 25 -56 8 -61 33 -115 58 -123 29 -9 57
-80 56 -138 -1 -45 4 -59 40 -113 24 -33 49 -64 58 -67 30 -11 61 -6 79 14 10
11 23 20 29 20 6 0 18 5 26 10 13 8 12 12 -8 25 -40 29 -22 75 30 75 16 0 31
-7 37 -19 15 -27 41 -34 67 -16 31 20 41 19 47 -5 3 -11 19 -25 36 -31 17 -6
36 -19 41 -29 11 -20 40 -156 40 -186 0 -47 -13 -48 -285 -25 -141 12 -260 19
-266 16 -5 -4 -9 -25 -9 -48 0 -23 -4 -48 -9 -56 -10 -16 -40 15 -128 134 -64
85 -187 203 -256 244 -23 14 -48 31 -55 38 -7 7 -22 13 -33 13 -10 0 -19 5
-19 10 0 6 -4 10 -10 10 -6 0 -10 -88 -10 -244 l0 -245 30 -45 c17 -25 40 -69
52 -98 12 -29 25 -55 28 -58 3 -3 17 -32 30 -65 13 -33 32 -74 42 -90 9 -17
19 -45 20 -64 3 -32 2 -33 -57 -51 -33 -9 -78 -21 -100 -26 l-40 -9 -3 -72
c-2 -61 0 -73 13 -73 8 0 24 -14 35 -32 22 -36 15 -52 -25 -62 -24 -6 -25 -9
-25 -97 0 -89 0 -90 23 -83 142 45 159 44 185 -13 25 -56 18 -70 -29 -54 -55
19 -103 14 -127 -14 -12 -14 -29 -25 -37 -25 -13 0 -15 -249 -15 -2220 l0
-2220 4643 0 c2554 0 4678 3 4720 6 55 5 77 11 77 20 0 10 13 14 40 14 40 0
44 5 41 43 -3 20 5 24 71 36 68 12 72 8 77 -89 2 -30 3 -32 11 -14 5 12 14 25
20 29 6 4 8 15 5 24 -9 28 96 115 131 109 9 -2 19 3 21 10 3 6 -3 12 -13 12
-13 0 -15 3 -7 11 13 13 47 4 38 -10 -11 -19 18 -24 32 -6 9 13 13 14 13 5 0
-9 9 -5 25 10 19 18 28 21 37 12 7 -7 17 -8 30 -1 10 5 18 6 19 2 2 -19 8 -45
11 -47 2 0 14 -10 28 -21 l24 -20 -17 27 c-9 15 -17 34 -17 43 0 22 46 38 71
24 22 -11 54 -5 45 10 -8 12 25 24 37 12 5 -5 25 -7 46 -4 35 5 37 4 39 -28 2
-19 10 -41 18 -49 14 -13 17 -13 30 4 8 11 14 27 14 37 0 9 8 20 18 25 14 6
12 8 -13 14 -26 7 -23 8 20 10 37 1 45 4 30 10 -17 6 -13 9 20 14 22 4 60 11
85 16 25 5 82 12 127 15 46 4 98 11 115 17 18 6 71 15 118 19 109 10 268 35
395 61 55 12 123 22 150 23 72 3 75 3 75 20 0 12 -13 15 -62 14 -130 -3 -128
-4 -128 39 0 29 -5 39 -22 47 -13 6 -23 19 -23 30 0 24 -52 34 -67 13 -6 -9
-7 -6 -3 10 5 18 2 22 -17 22 -13 0 -29 -8 -36 -17 -11 -16 -34 -18 -170 -21
-155 -3 -206 -8 -412 -37 -58 -8 -141 -19 -185 -25 -44 -5 -163 -20 -265 -34
-102 -14 -246 -32 -320 -41 -74 -8 -162 -20 -195 -27 -33 -6 -109 -12 -170
-15 -60 -2 -114 -8 -119 -13 -13 -13 -76 -13 -76 -1 0 5 18 24 40 42 34 28 40
39 40 71 0 37 11 46 53 39 4 0 7 17 7 38 0 22 4 41 10 43 5 2 10 39 12 82 3
76 2 81 -22 92 -16 9 -28 10 -36 3 -9 -7 -19 -7 -33 0 -27 15 -66 16 -213 7
-114 -7 -128 -6 -128 8 0 9 -7 16 -15 16 -9 0 -12 -6 -9 -15 5 -13 -10 -15
-105 -15 -67 0 -111 4 -111 10 0 6 18 10 40 10 22 0 40 5 40 10 0 6 18 10 40
10 22 0 40 4 40 8 0 14 -64 32 -113 32 -33 0 -47 4 -47 14 0 10 -22 16 -77 21
-43 4 -81 12 -85 18 -13 22 5 37 44 37 l40 0 -6 48 -7 47 22 -25 c14 -16 23
-21 26 -12 3 6 13 12 24 12 13 0 19 7 19 23 1 20 2 21 14 5 16 -22 42 -23 50
-2 5 12 15 14 51 8 36 -5 45 -3 45 9 0 8 9 17 20 20 11 3 20 12 20 21 0 22 32
20 63 -4 30 -24 142 -28 171 -7 17 12 17 16 0 67 -9 30 -21 59 -25 65 -5 5 -9
14 -9 20 1 5 9 0 20 -13 17 -20 20 -21 28 -6 9 15 10 15 17 -5 l7 -23 23 22
c19 18 22 27 15 46 -13 33 7 32 22 -1 6 -14 15 -25 20 -25 4 0 8 -5 8 -12 0
-16 63 -142 73 -146 4 -2 7 -10 7 -18 0 -8 4 -14 10 -14 5 0 15 -19 22 -42 17
-56 50 -88 93 -88 31 0 35 3 35 25 0 27 6 37 53 87 20 22 27 40 27 68 0 21 -5
40 -11 42 -5 2 -7 11 -3 22 5 14 9 15 15 4 6 -8 9 2 9 30 0 23 5 42 10 42 6 0
10 21 10 46 0 25 5 54 10 64 8 15 6 21 -7 29 -12 7 -14 13 -7 18 6 5 13 29 16
56 5 44 4 47 -18 47 -19 0 -24 5 -24 24 0 14 5 28 10 31 10 6 8 55 -3 85 -3 8
-18 65 -33 125 -15 61 -32 117 -39 125 -32 42 -44 104 -25 138 14 26 40 156
40 202 0 42 -26 100 -44 100 -5 0 -48 18 -96 40 -133 61 -322 81 -532 56
l-131 -17 -27 33 c-15 18 -43 50 -62 71 -19 21 -41 50 -49 65 -8 15 -28 41
-44 57 -44 45 -233 258 -288 326 -49 60 -79 73 -105 47 -25 -25 -10 -57 71
-154 120 -144 142 -175 131 -182 -16 -11 -24 -41 -13 -47 5 -4 12 1 15 9 3 9
11 16 16 16 6 0 7 -7 4 -17 -9 -21 31 -63 60 -63 14 0 34 -15 56 -42 18 -23
48 -58 66 -78 61 -65 61 -66 -26 -79 -42 -7 -102 -16 -132 -21 -30 -5 -77 -12
-105 -15 -27 -4 -66 -10 -85 -15 -181 -46 -203 -50 -215 -40 -9 8 -14 5 -18
-9 -3 -12 -17 -23 -33 -26 -16 -4 -42 -13 -59 -20 -16 -7 -59 -26 -95 -40 -69
-29 -245 -111 -270 -126 -8 -5 -40 -21 -70 -35 -30 -14 -73 -34 -95 -44 -22
-10 -52 -22 -67 -25 -16 -4 -28 -11 -28 -16 0 -5 -18 -12 -40 -15 -22 -4 -40
-10 -40 -14 0 -10 -61 -32 -68 -25 -3 2 -14 -2 -26 -10 -11 -8 -30 -15 -43
-15 -12 0 -24 -4 -27 -9 -7 -10 -132 -54 -156 -54 -8 0 -24 -6 -35 -13 -11 -8
-31 -14 -45 -14 -14 0 -34 -7 -44 -15 -11 -8 -34 -15 -52 -15 -18 0 -36 -5
-39 -10 -3 -5 -17 -10 -31 -10 -14 0 -43 -9 -65 -21 -32 -16 -44 -18 -55 -8
-11 9 -14 8 -14 -4 0 -8 -7 -18 -16 -21 -25 -9 -64 -7 -64 4 0 6 -4 10 -10 10
-5 0 -10 -9 -10 -19 0 -20 -18 -31 -50 -31 -16 0 -17 4 -8 38 5 20 9 47 9 60
-1 15 4 22 12 19 6 -2 12 -12 12 -23 0 -17 5 -20 36 -15 7 1 9 52 7 160 -3
152 3 192 22 161 14 -23 23 -4 16 34 -4 19 -13 37 -21 40 -8 3 -15 15 -15 26
0 48 -50 90 -106 90 -49 0 -129 67 -93 79 6 2 20 12 30 22 23 23 35 24 43 4 7
-19 50 -20 65 -1 7 8 13 24 14 35 1 23 17 29 17 8 0 -22 36 -49 61 -45 19 2
26 14 40 70 9 37 20 75 24 85 7 17 8 17 15 -2 14 -34 12 -75 -5 -75 -19 0 -19
-10 1 -38 25 -35 99 -22 86 16 -6 19 16 14 38 -8 22 -22 70 -27 70 -7 0 7 6
22 14 32 13 18 14 18 32 -3 26 -31 72 -30 80 2 3 14 3 29 0 35 -4 5 -2 12 4
16 5 3 10 19 10 35 0 27 15 48 27 37 3 -3 6 -21 6 -39 2 -25 -2 -33 -15 -33
-9 0 -20 -4 -24 -8 -4 -4 0 -7 9 -7 10 0 17 -4 17 -10 0 -16 46 -41 64 -34 9
3 19 17 22 30 8 31 27 31 48 0 10 -17 22 -23 35 -19 31 8 42 27 46 84 2 29 9
57 14 62 15 15 25 -36 14 -69 -7 -22 -5 -32 9 -46 27 -27 62 -20 66 12 4 43
24 110 32 110 9 0 20 -25 20 -46 0 -8 -7 -14 -15 -14 -8 0 -15 -4 -15 -10 0
-5 5 -10 10 -10 6 0 10 -6 10 -13 0 -8 11 -20 25 -27 20 -11 27 -11 40 0 19
16 19 44 0 60 -8 7 -24 32 -35 56 -10 24 -25 44 -33 44 -19 0 -43 -29 -51 -63
-7 -30 -26 -28 -26 2 0 22 -31 51 -54 51 -10 0 -24 -16 -35 -42 l-17 -41 -13
32 c-8 17 -22 36 -32 41 -27 15 -59 -24 -59 -72 0 -46 -15 -42 -24 6 -8 41
-27 59 -58 54 -15 -2 -26 -13 -32 -33 -5 -16 -11 -37 -14 -45 -3 -9 -8 -4 -13
16 -19 69 -65 71 -90 4 -14 -37 -18 -42 -24 -25 -20 61 -25 66 -53 63 -22 -2
-30 -11 -43 -51 -16 -48 -29 -53 -29 -10 0 38 -18 63 -45 63 -27 0 -40 -18
-50 -73 -8 -42 -25 -40 -25 2 0 17 -10 39 -25 54 -15 14 -22 28 -16 31 7 5 7
15 1 32 -6 14 -10 41 -10 60 0 24 -5 34 -15 34 -17 0 -19 -35 -6 -112 4 -26 4
-51 -1 -56 -4 -4 -14 -28 -21 -53 l-13 -44 -12 48 c-13 51 -34 67 -62 49 -14
-9 -19 -8 -24 4 -11 30 -25 4 -15 -29 11 -40 12 -77 0 -77 -5 0 -12 15 -15 34
-4 19 -16 46 -28 61 l-21 27 -13 -23 c-7 -13 -18 -46 -25 -72 -15 -62 -30 -49
-33 27 -2 31 -6 59 -9 63 -4 3 -7 -1 -7 -10 0 -26 -39 -21 -49 5 -7 19 -9 14
-15 -27 -9 -66 -15 -85 -27 -85 -5 0 -9 10 -9 22 0 12 -5 38 -11 57 -7 20 -14
43 -17 51 -5 16 -7 12 -16 -32 -10 -47 -34 -51 -114 -18 -39 16 -84 38 -99 49
-15 10 -58 27 -96 36 -37 9 -98 28 -135 42 -61 24 -102 33 -292 63 -36 6 -108
11 -160 11 -89 1 -103 4 -230 52 -135 51 -135 51 -255 52 -142 0 -180 -9 -335
-80 -63 -29 -135 -56 -160 -60 -25 -3 -53 -9 -62 -11 -24 -7 -58 31 -58 63 0
14 -6 34 -13 42 -17 20 -65 144 -112 290 -20 63 -45 133 -54 155 -10 23 -29
66 -42 96 -13 30 -45 95 -71 143 -27 48 -48 92 -48 97 0 5 -6 15 -13 22 -7 7
-37 49 -67 92 -30 44 -84 112 -120 152 -147 164 -235 285 -226 311 5 11 59 13
303 13 164 0 315 4 337 9 24 6 49 22 66 43 34 41 29 62 -14 55 -45 -7 -104 13
-109 38 -3 20 25 77 51 104 22 22 82 61 95 61 14 1 97 77 97 89 0 10 -45 29
-80 33 -22 3 -25 8 -26 48 -1 37 4 50 27 73 16 15 29 31 29 37 0 20 36 29 79
19 34 -8 45 -6 58 6 8 9 28 19 44 22 23 4 29 11 29 32 0 15 5 32 11 38 8 8 8
13 0 17 -6 4 -11 16 -11 27 0 16 -7 19 -40 19 -47 0 -62 21 -35 50 23 25 12
60 -20 60 -15 0 -26 -7 -30 -20 -3 -11 -18 -25 -33 -32 -30 -15 -40 -51 -21
-74 10 -12 24 -14 55 -9 33 5 43 3 48 -10 8 -23 -4 -67 -18 -62 -6 2 -22 0
-35 -5 -18 -7 -38 -1 -87 23 -35 18 -65 38 -68 45 -3 8 -10 14 -16 14 -6 0
-22 11 -37 24 l-25 24 48 16 c91 30 205 164 284 332 18 38 32 80 31 94 -1 14
-2 59 -2 100 -1 80 -3 76 78 140 10 8 27 28 37 43 10 16 23 26 31 23 8 -3 15
0 17 6 3 7 23 5 63 -5 50 -13 64 -13 97 -1 21 7 46 20 54 29 29 28 129 15 129
-17 0 -17 41 -25 98 -18 59 8 59 8 81 -120 22 -129 26 -270 6 -270 -5 0 -10 6
-10 14 0 8 -5 18 -11 22 -8 4 -9 -1 -4 -16 6 -19 4 -22 -9 -17 -9 4 -16 3 -16
-2 0 -9 -34 -17 -117 -27 -36 -5 -43 -3 -43 11 0 12 -8 16 -27 14 -16 -1 -36
2 -46 6 -9 4 -29 4 -45 0 -85 -22 -269 -26 -281 -6 -7 10 -10 10 -16 1 -8 -13
4 -59 41 -155 12 -33 26 -73 30 -90 4 -16 10 -34 13 -40 15 -22 30 -83 32
-125 2 -25 8 -54 16 -65 26 -39 9 -105 -20 -76 -16 16 -34 14 -41 -5 -4 -11 1
-18 14 -21 31 -8 25 -49 -12 -87 -60 -58 -91 -101 -98 -131 -4 -20 -12 -29
-22 -27 -22 3 -71 -82 -63 -109 6 -17 13 -20 38 -15 18 3 62 8 100 12 63 6 67
5 67 -13 0 -25 25 -49 35 -33 9 14 21 13 39 -6 21 -20 115 -10 133 15 9 13 30
16 100 17 86 1 139 13 156 37 7 9 10 9 14 0 3 -8 23 -13 49 -13 40 0 44 -2 44
-24 0 -14 -14 -40 -30 -58 -30 -32 -30 -33 -9 -36 12 -2 26 2 31 10 6 9 7 5 3
-11 -7 -23 -5 -24 25 -17 18 3 37 6 42 6 6 0 8 9 5 20 -6 23 -3 24 22 8 15 -9
32 -7 83 10 35 12 71 22 79 22 9 0 34 16 56 35 23 19 48 35 57 35 9 0 16 5 16
10 0 6 17 10 38 10 51 0 228 46 253 66 8 6 26 14 41 18 63 15 79 114 78 505 0
168 -3 308 -7 312 -8 7 -314 94 -450 127 -35 9 -63 19 -63 23 0 19 69 19 135
1 150 -42 317 -92 335 -102 35 -19 48 -12 53 28 2 21 0 42 -7 48 -6 6 -73 28
-148 49 -75 21 -135 42 -132 46 12 20 67 18 159 -6 55 -14 105 -25 112 -25 18
0 17 75 -2 93 -11 12 -12 16 -3 19 12 4 13 164 2 358 -1 25 -2 66 -3 92 -1 37
-6 50 -21 58 -18 9 -130 34 -328 72 -29 6 -51 12 -48 15 2 2 69 -7 148 -21 78
-15 164 -30 190 -35 26 -4 50 -6 53 -3 3 3 5 41 5 84 0 54 -4 80 -12 82 -79
22 -97 30 -86 38 10 6 10 8 -1 8 -8 0 -12 2 -10 4 2 2 26 0 53 -5 28 -5 53 -6
58 -1 14 14 -4 50 -28 56 -25 7 -34 26 -11 26 8 0 7 4 -3 10 -12 8 -10 10 9
10 16 0 22 -4 17 -15 -3 -8 -1 -15 4 -15 6 0 10 13 10 28 0 19 -5 28 -17 29
-10 1 -39 5 -65 9 -52 7 -68 -9 -21 -21 19 -4 23 -9 14 -14 -10 -7 -10 -10 -1
-16 7 -4 16 -1 21 6 7 11 9 10 9 -3 0 -22 4 -22 -119 -2 -54 8 -112 14 -128
12 -25 -4 -24 -5 17 -15 42 -11 41 -11 -29 -6 -75 6 -211 -13 -211 -29 0 -4
-15 -8 -33 -8 -45 0 -149 -21 -164 -32 -20 -16 -31 0 -38 50 -4 26 -11 63 -16
83 -8 32 -49 290 -49 309 0 5 26 8 58 7 31 -1 76 4 99 11 37 11 42 16 45 45 3
30 5 32 58 40 64 9 74 17 75 60 0 29 3 32 35 35 19 2 69 14 110 27 41 12 134
31 205 40 72 10 136 19 143 21 13 4 16 41 6 68 -8 20 -83 11 -137 -17 -23 -12
-46 -17 -61 -13 -14 3 -28 2 -31 -4 -3 -5 -16 -10 -28 -9 -21 0 -21 1 -2 9 18
8 18 9 -6 9 -46 2 -140 -21 -136 -33 6 -17 -72 -57 -97 -51 -17 5 -18 4 -6 -4
10 -7 11 -11 3 -11 -7 0 -13 -9 -13 -19 0 -15 -14 -22 -72 -35 -90 -20 -161
-30 -134 -18 18 8 18 9 2 15 -10 4 -27 7 -39 7 -29 0 -90 38 -82 50 8 13 -24
13 -157 -4 -62 -8 -198 -22 -303 -32 -200 -18 -253 -31 -262 -64 -4 -15 -11
-19 -24 -15 -11 4 -19 2 -19 -4 0 -6 -4 -11 -10 -11 -5 0 -10 7 -10 15 0 9 -8
19 -17 22 -10 4 -20 9 -23 13 -3 3 -23 13 -45 21 -22 9 -39 21 -38 27 2 6 -6
16 -18 22 -11 7 -28 18 -37 27 -36 32 -146 95 -168 97 -13 0 -24 7 -24 14 0 7
-6 12 -12 11 -29 -4 -42 4 -94 56 -31 30 -59 55 -63 55 -12 0 -41 35 -41 51
-1 17 -60 88 -60 71 0 -7 -8 -12 -17 -12 -16 0 -53 72 -68 130 -2 8 -10 30
-18 49 -11 27 -12 39 -3 54 8 15 8 21 -1 24 -7 3 -13 16 -13 30 0 15 -3 23 -6
20 -12 -11 -44 13 -44 33 0 23 22 26 39 6 6 -7 24 -16 40 -19 16 -3 36 -13 44
-22 17 -16 87 -21 87 -5 0 5 36 8 84 7 51 -1 89 2 96 9 6 7 10 37 8 75 l-3 64
-17 -36 c-20 -41 -43 -63 -58 -54 -12 8 -13 62 -1 69 18 11 23 132 7 170 -9
21 -13 52 -10 77 3 22 6 53 7 69 2 25 5 28 27 24 14 -3 38 -10 53 -16 21 -8
34 -8 52 2 20 10 33 10 72 0 26 -7 53 -16 58 -20 6 -4 36 -14 68 -21 32 -7 60
-16 63 -21 3 -4 11 -8 17 -8 16 1 -23 30 -40 30 -8 0 -25 7 -39 16 -23 16 -24
18 -9 40 21 33 19 41 -15 59 -32 17 -70 20 -70 6 0 -5 -7 -17 -15 -25 -13 -13
-20 -13 -35 -3 -23 14 -24 24 -8 77 9 28 19 40 31 40 18 0 19 6 12 81 -4 50
-12 87 -21 96 -8 8 -14 24 -15 36 0 32 -7 86 -16 132 -8 39 -10 40 -52 43 -32
2 -47 -1 -53 -12 -5 -9 -18 -16 -29 -16 -11 0 -28 -8 -37 -17 -16 -15 -17 -15
-20 0 -2 9 -14 20 -28 23 -13 3 -24 10 -24 16 0 5 -19 8 -42 6 l-43 -3 -12
-75 c-27 -176 -46 -250 -65 -250 -10 0 -18 4 -18 9 0 11 -58 32 -64 23 -2 -4
-7 -23 -11 -42 -3 -19 -16 -64 -27 -100 -53 -169 -77 -231 -78 -202 0 8 -5 10
-12 5 -7 -4 -25 -8 -39 -8 -25 0 -26 3 -28 55 -1 30 -6 69 -11 85 -8 27 -40
185 -55 275 -3 19 -10 70 -15 112 -14 128 -2 118 -149 118 l-128 0 -6 -62 c-3
-34 -1 -70 4 -79 10 -19 13 -102 3 -111 -3 -3 -14 -4 -25 -1 -14 4 -19 14 -19
42 0 20 -5 42 -12 49 -7 7 -9 12 -5 12 3 0 0 21 -8 48 -8 26 -15 59 -15 75 l0
27 -80 0 -80 0 0 -75 c0 -41 -4 -75 -9 -75 -5 0 -17 34 -26 75 l-18 75 -593 0
c-361 0 -594 -4 -594 -9 0 -5 -12 -11 -26 -13 -15 -2 -32 -14 -42 -30 -15 -25
-15 -28 0 -45 29 -33 37 -84 17 -118 -10 -16 -18 -44 -18 -62 -1 -17 -6 -35
-11 -38 -6 -4 -8 -11 -5 -16 4 -5 0 -9 -7 -10 -7 0 -4 -5 7 -10 14 -6 -6 -8
-62 -4 -89 5 -113 1 -113 -20 0 -25 24 -30 144 -30 86 0 120 -3 123 -12 3 -8
-6 -13 -24 -14 -15 0 -22 -3 -15 -6 6 -2 12 -11 12 -19 0 -8 5 -14 10 -14 6 0
10 -9 10 -20 0 -36 -43 -42 -277 -44 -199 -1 -224 1 -240 17 -11 10 -13 17 -5
17 7 0 12 5 12 10 0 6 -11 10 -25 10 -14 0 -25 5 -25 10 0 6 12 10 28 10 23 1
24 2 10 11 -10 5 -18 17 -18 24 0 8 -9 15 -20 15 -15 0 -25 18 -49 95 -17 52
-35 113 -40 135 l-9 40 77 1 76 1 -55 13 c-30 8 -70 14 -88 15 -30 0 -35 5
-58 55 l-25 55 -235 0 -234 0 0 -194z m3664 145 c3 -5 3 -23 0 -40 -5 -21 -12
-31 -25 -31 -20 0 -26 31 -13 64 7 17 29 21 38 7z m-1850 -20 c76 -6 143 -14
147 -18 14 -14 -2 -51 -24 -55 -12 -2 -120 -1 -241 3 -217 7 -276 17 -276 45
0 8 -16 16 -40 20 -22 4 -40 11 -40 17 0 11 225 5 474 -12z m-223 -81 c53 -5
156 -10 230 -11 74 0 142 -5 152 -10 12 -7 17 -22 17 -49 0 -21 4 -41 9 -44
13 -9 19 -52 9 -70 -5 -9 -20 -16 -33 -16 -14 0 -25 -4 -25 -9 0 -5 -19 -12
-42 -15 -162 -24 -160 -23 -33 -25 l120 -1 1 -50 1 -50 -81 -2 c-45 -1 -99 -3
-121 -4 -70 -3 -330 -6 -340 -4 -5 2 -13 2 -17 1 -4 0 -5 5 -2 13 3 7 -2 16
-10 19 -25 10 -19 27 10 27 17 0 28 7 31 18 2 10 16 26 31 35 16 10 21 17 12
17 -8 0 -28 12 -44 26 -27 24 -28 26 -10 39 11 8 28 15 39 15 33 0 3 20 -46
29 -36 7 -39 9 -14 10 53 2 61 17 13 26 l-43 8 33 7 c44 10 48 16 29 38 -10
10 -17 24 -17 30 0 14 15 14 141 2z m1100 -147 c16 -127 28 -119 -199 -128
-108 -4 -219 -11 -246 -16 -40 -7 -54 -6 -74 7 -22 15 -23 18 -9 26 19 10 240
27 364 28 82 0 145 16 121 31 -9 6 -9 11 1 23 8 9 10 16 5 16 -11 0 18 20 29
20 4 0 7 -3 8 -7z m616 -115 c-3 -8 -6 -5 -6 6 -1 11 2 17 5 13 3 -3 4 -12 1
-19z m-3077 -2 c0 -9 -50 -12 -62 -5 -8 6 1 9 25 9 20 0 37 -2 37 -4z m2478
-28 c-5 -13 -65 -20 -310 -32 -82 -4 -129 -3 -133 4 -3 5 -5 10 -3 11 4 2 366
26 411 28 27 1 37 -3 35 -11z m-538 -18 c12 -8 12 -10 -5 -10 -11 0 -27 5 -35
10 -12 8 -12 10 5 10 11 0 27 -5 35 -10z m1303 -20 c19 -9 26 -19 22 -29 -4
-9 -9 -29 -12 -46 -9 -53 -75 -239 -92 -258 -12 -15 -25 -18 -55 -14 -47 7
-61 24 -40 52 14 20 18 28 54 110 17 40 34 96 45 147 5 27 32 61 44 56 3 -2
19 -10 34 -18z m-154 -44 c18 -19 21 -31 16 -55 -8 -37 -34 -41 -82 -11 -38
23 -40 32 -15 65 22 31 53 31 81 1z m-2387 -178 c28 -14 39 -43 28 -72 -18
-48 -90 -62 -132 -26 -12 12 -38 30 -55 40 -46 27 -45 54 1 46 21 -4 37 -2 41
4 17 28 72 32 117 8z m2292 -103 c25 -24 36 -65 16 -65 -5 0 -10 -18 -10 -40
0 -29 -4 -40 -15 -40 -8 0 -15 9 -15 20 0 11 -5 19 -12 18 -29 -7 -54 114 -25
125 23 10 34 7 61 -18z m296 -1 c0 -8 -4 -12 -10 -9 -5 3 -10 10 -10 16 0 5 5
9 10 9 6 0 10 -7 10 -16z m-2673 -80 c30 -30 22 -45 -29 -49 -60 -5 -86 25
-52 59 23 23 51 20 81 -10z m-267 -279 c0 -17 -2 -18 -24 -9 -23 9 -20 24 4
24 11 0 20 -7 20 -15z m3537 -661 c-3 -3 -12 -4 -19 -1 -8 3 -5 6 6 6 11 1 17
-2 13 -5z m298 -4 c13 -5 14 -9 5 -9 -8 0 -24 4 -35 9 -13 5 -14 9 -5 9 8 0
24 -4 35 -9z m-135 -40 c108 -26 218 -35 295 -22 33 6 63 7 66 4 8 -8 40 -206
46 -282 3 -37 1 -50 -6 -41 -5 8 -16 11 -25 8 -12 -5 -16 0 -16 19 0 34 -33
68 -59 61 -14 -3 -21 0 -21 9 0 8 -6 14 -14 14 -7 0 -19 7 -26 15 -8 10 -31
15 -66 15 -30 0 -54 5 -54 10 0 6 -18 10 -40 10 -54 0 -51 20 3 21 32 2 35 3
12 6 -61 7 -75 13 -75 32 0 11 6 22 13 24 6 3 -5 6 -25 6 -20 1 -43 4 -52 7
-12 4 -16 0 -16 -15 0 -17 -6 -21 -30 -21 -21 0 -30 5 -30 17 0 9 -7 25 -17
35 -22 25 -10 33 45 32 31 -1 40 1 27 6 -11 4 -20 12 -20 18 0 6 -9 18 -20 27
l-20 16 20 -5 c11 -3 58 -14 105 -26z m-20 -110 c0 -5 -4 -10 -10 -10 -5 0
-10 5 -10 10 0 6 5 10 10 10 6 0 10 -4 10 -10z m1293 -332 c27 -5 46 -12 43
-15 -5 -6 -157 25 -165 33 -6 7 36 1 122 -18z m-303 -358 c74 -16 187 -39 250
-51 70 -13 120 -28 128 -37 6 -9 12 -35 12 -58 0 -22 5 -65 10 -94 13 -70 7
-91 -28 -87 -15 2 -34 7 -42 10 -8 4 -37 1 -65 -6 -42 -10 -50 -16 -49 -35 1
-31 -34 -38 -102 -22 -44 11 -61 11 -94 0 -43 -14 -65 -33 -56 -49 10 -16 -52
-31 -82 -20 -14 6 -48 7 -73 4 l-47 -7 -7 42 c-4 23 -4 44 0 48 4 4 32 8 63 8
31 1 79 6 105 10 l48 9 -36 47 c-21 26 -45 50 -55 53 -10 3 -25 17 -34 30 -9
14 -23 25 -31 25 -8 0 -15 7 -15 15 0 10 -10 15 -34 15 -59 0 -62 45 -9 130
44 69 20 67 243 20z m-4555 -112 c28 -12 30 -20 15 -49 -17 -30 -62 -25 -82 9
-27 46 8 67 67 40z m4104 -204 c9 -8 -75 -3 -88 5 -8 5 5 7 35 4 27 -3 51 -7
53 -9z m-3324 -306 c29 -13 34 -51 10 -82 -10 -13 -12 -32 -8 -61 5 -40 3 -43
-31 -64 -19 -12 -40 -20 -46 -16 -5 3 -10 1 -10 -4 0 -28 -19 -6 -30 33 -11
41 -10 48 9 79 11 19 21 41 21 49 0 25 31 78 45 78 8 0 26 -5 40 -12z m-368
-30 c16 -20 31 -175 25 -257 -3 -52 1 -90 12 -130 10 -31 27 -118 40 -194 24
-142 35 -166 79 -167 55 -1 -39 -40 -97 -40 -8 0 -20 -7 -27 -17 -8 -9 -27
-22 -44 -30 -16 -7 -41 -22 -55 -33 -14 -10 -50 -22 -81 -25 l-56 -7 -52 164
c-29 89 -56 174 -61 188 -27 78 -40 146 -40 207 0 82 -15 116 -54 123 -23 4
-32 14 -48 55 -11 28 -24 54 -29 60 -5 5 -9 19 -9 31 0 25 2 26 190 44 58 6
141 17 185 24 106 18 111 18 122 4z m3991 -59 c20 -7 29 -15 25 -25 -3 -9 1
-14 12 -14 15 0 13 -3 -6 -18 -35 -27 -62 -25 -56 5 2 13 1 23 -3 23 -4 0 -10
9 -13 20 -6 23 -1 24 41 9z m98 -37 c-10 -2 -22 0 -28 6 -6 6 0 7 19 4 21 -5
23 -7 9 -10z m69 -12 c13 -5 14 -9 5 -9 -8 0 -24 4 -35 9 -13 5 -14 9 -5 9 8
0 24 -4 35 -9z m80 -30 c13 -5 14 -9 5 -9 -8 0 -24 4 -35 9 -13 5 -14 9 -5 9
8 0 24 -4 35 -9z m-1885 -178 c-7 -3 -19 3 -28 13 -16 15 -15 16 12 4 15 -7
23 -15 16 -17z m223 -99 c-3 -7 0 -13 5 -13 18 0 26 -67 11 -84 -20 -22 -32
-37 -57 -73 -13 -18 -30 -33 -37 -33 -20 0 -35 32 -28 58 7 27 -21 40 -48 24
-27 -17 -39 -15 -39 8 0 11 4 20 10 20 5 0 7 6 5 13 -3 7 11 21 32 32 24 13
39 28 41 43 3 21 8 23 57 20 37 -2 51 -6 48 -15z m-2253 -3 c0 -5 9 -10 20
-10 13 0 20 -7 20 -19 0 -15 10 -19 61 -24 38 -3 68 -12 78 -22 15 -15 13 -19
-23 -50 -51 -43 -153 -92 -166 -79 -7 8 -15 139 -11 197 1 18 21 25 21 7z
m2040 -64 c0 -8 -7 -16 -15 -20 -10 -4 -15 1 -15 14 0 11 7 20 15 20 8 0 15
-6 15 -14z m337 -26 c7 -13 21 -28 33 -32 17 -6 18 -11 9 -25 -16 -25 -71 -60
-107 -68 -29 -6 -30 -5 -27 26 2 23 9 35 24 40 16 6 21 17 21 42 0 54 24 62
47 17z m-3512 -26 c9 -14 14 -32 11 -40 -8 -22 -52 -35 -80 -24 -27 10 -53 68
-33 75 7 2 19 6 27 8 35 12 58 6 75 -19z m3103 -41 c-2 -26 -14 -43 -30 -43
-14 0 -8 33 9 52 21 24 23 23 21 -9z m532 -22 c0 -17 -12 -41 -21 -41 -5 0 -9
11 -9 25 0 16 6 25 15 25 8 0 15 -4 15 -9z m-584 -85 c8 -3 14 -1 14 4 0 6 7
10 16 10 8 0 13 -4 10 -8 -9 -14 13 -37 36 -37 12 0 24 -7 26 -15 2 -11 -8
-16 -38 -17 -34 -2 -43 2 -61 26 -12 17 -28 27 -35 24 -17 -6 -18 19 -1 36 10
10 13 9 15 -3 2 -8 10 -17 18 -20z m462 8 c65 -10 23 -72 -48 -70 -27 0 -45
-4 -48 -12 -6 -19 -30 -14 -43 10 -9 16 -9 23 0 26 6 2 11 14 11 27 0 13 5 25
11 27 12 4 63 1 117 -8z m-3419 -103 c13 -9 61 -116 61 -138 0 -21 -17 -15
-37 12 -10 13 -33 45 -52 70 -28 38 -32 48 -20 56 18 11 30 11 48 0z m4649
-127 c7 -7 9 -12 6 -9 -4 2 -16 -2 -26 -10 -11 -7 -26 -11 -33 -8 -8 2 -35 -5
-61 -16 -44 -20 -84 -20 -84 -1 0 5 19 15 43 23 29 11 35 16 20 16 -14 1 -23
7 -23 17 0 14 9 16 73 10 42 -4 77 -13 85 -22z m215 -19 c1 -5 -6 -11 -15 -13
-11 -2 -18 3 -18 13 0 17 30 18 33 0z m-4230 -114 c73 -31 168 -53 182 -41 16
13 5 -53 -15 -90 -26 -49 -111 -170 -119 -170 -8 0 -20 29 -76 188 -14 41 -30
82 -36 93 -10 20 -5 39 11 39 4 0 28 -9 53 -19z m-515 -93 c-1 -7 5 -27 14
-43 17 -31 26 -55 104 -275 68 -192 136 -419 129 -430 -11 -18 -45 -11 -55 13
-5 12 -16 54 -25 92 -38 175 -165 595 -186 620 -14 15 -10 35 6 35 9 0 15 -6
13 -12z m322 -973 c0 -19 -34 -85 -47 -89 -22 -9 -30 0 -38 40 -4 26 -3 39 7
45 14 9 78 12 78 4z m6186 -749 c3 -19 3 -39 0 -44 -8 -14 -45 -3 -41 11 2 7
6 24 9 40 9 37 24 34 32 -7z m-241 -16 c3 -16 2 -36 -3 -45 -14 -26 -33 6 -26
44 8 39 20 40 29 1z m-115 -11 c6 -24 -9 -79 -21 -79 -12 0 -21 56 -13 84 8
32 26 29 34 -5z m-240 -39 c0 -18 -6 -26 -18 -27 -15 -1 -18 4 -15 25 8 50 13
58 23 42 6 -8 10 -26 10 -40z m-120 1 c0 -17 -5 -33 -11 -36 -15 -10 -17 -4
-12 33 6 40 23 42 23 3z m-240 -16 c0 -25 -4 -35 -16 -35 -11 0 -14 5 -10 16
3 9 6 24 6 35 0 10 5 19 10 19 6 0 10 -16 10 -35z m120 0 c0 -19 -4 -35 -10
-35 -11 0 -14 53 -3 63 11 12 13 8 13 -28z m-1689 -423 c15 -28 38 -65 53 -82
26 -31 34 -74 17 -84 -5 -3 -56 26 -115 65 -78 51 -104 74 -99 84 11 19 96 75
108 72 6 -2 22 -27 36 -55z m1809 -356 c0 -13 -7 -26 -15 -30 -10 -4 -15 1
-15 14 0 14 -5 18 -17 13 -15 -5 -14 -3 2 10 29 23 45 21 45 -7z m-107 -53
c-7 -2 -19 -2 -25 0 -7 3 -2 5 12 5 14 0 19 -2 13 -5z m2877 -438 c0 -8 -2
-15 -4 -15 -2 0 -6 7 -10 15 -3 8 -1 15 4 15 6 0 10 -7 10 -15z m-256 -10 c3
-8 1 -15 -4 -15 -6 0 -10 7 -10 15 0 8 2 15 4 15 2 0 6 -7 10 -15z m-111 -292
c-13 -2 -33 -2 -45 0 -13 2 -3 4 22 4 25 0 35 -2 23 -4z m2467 -283 c0 -5 -2
-10 -4 -10 -3 0 -8 5 -11 10 -3 6 -1 10 4 10 6 0 11 -4 11 -10z m110 -75 c0
-9 -6 -12 -15 -9 -8 4 -12 10 -9 15 8 14 24 10 24 -6z m-2145 -135 c-27 -12
-43 -12 -25 0 8 5 22 9 30 9 10 0 8 -3 -5 -9z m1182 -116 c-3 -3 -12 -4 -19
-1 -8 3 -5 6 6 6 11 1 17 -2 13 -5z"/>
<path d="M1663 8293 c9 -2 23 -2 30 0 6 3 -1 5 -18 5 -16 0 -22 -2 -12 -5z"/>
<path d="M3201 7864 c0 -11 3 -14 6 -6 3 7 2 16 -1 19 -3 4 -6 -2 -5 -13z"/>
<path d="M4160 6760 c0 -5 9 -10 20 -10 11 0 20 5 20 10 0 6 -9 10 -20 10 -11
0 -20 -4 -20 -10z"/>
<path d="M5256 5672 c-3 -5 8 -6 25 -4 16 2 29 6 29 8 0 8 -49 4 -54 -4z"/>
<path d="M3798 8633 c-5 -57 4 -219 11 -203 8 19 28 183 27 220 -1 32 -5 46
-17 48 -13 2 -17 -10 -21 -65z"/>
<path d="M4373 8655 c2 -41 4 -45 28 -45 28 0 39 19 39 68 0 19 -5 22 -35 22
l-34 0 2 -45z"/>
<path d="M5096 8669 c-3 -17 -6 -42 -6 -55 0 -13 -5 -24 -10 -24 -6 0 -10 -8
-8 -17 3 -16 -5 -18 -57 -15 -33 1 -82 5 -109 8 -34 5 -47 3 -42 -5 4 -6 33
-11 65 -11 43 0 62 -5 75 -18 15 -18 15 -20 -3 -36 -11 -10 -36 -70 -56 -134
-20 -65 -50 -155 -67 -202 -16 -47 -36 -106 -43 -131 l-13 -46 66 -7 c46 -5
67 -3 73 5 4 7 10 69 14 138 8 137 15 173 39 197 11 10 13 21 7 32 -12 23 -6
121 8 135 6 6 11 19 11 29 0 36 27 18 34 -22 7 -43 30 -60 81 -60 13 0 36 -8
53 -17 27 -16 69 -12 58 5 -3 5 -30 14 -60 21 -51 11 -54 14 -61 47 -5 28 -2
39 12 50 10 7 23 14 28 14 6 1 -1 6 -14 11 -17 7 -21 14 -16 27 15 38 15 65 0
88 -22 35 -51 31 -59 -7z"/>
<path d="M5404 8663 c-16 -94 -18 -98 -56 -101 -43 -4 -54 -28 -32 -70 8 -15
14 -32 14 -38 0 -17 25 -24 85 -24 64 0 85 16 85 68 1 20 3 54 6 74 5 32 3 37
-18 40 -14 2 -22 9 -20 18 16 73 17 70 -21 70 -34 0 -36 -2 -43 -37z"/>
<path d="M5960 8643 c0 -43 -3 -54 -10 -43 -11 16 -8 -76 10 -300 10 -126 4
-607 -9 -753 -5 -51 -7 -95 -6 -98 8 -12 29 -1702 28 -2203 0 -147 -5 -305
-11 -350 -6 -44 -16 -124 -21 -176 -6 -52 -14 -117 -20 -145 -5 -27 -12 -72
-16 -98 -4 -32 -12 -50 -23 -53 -27 -9 -54 -20 -97 -39 -39 -18 -132 -36 -187
-36 -29 0 -51 -20 -46 -43 3 -13 7 -13 33 -2 31 14 150 51 270 85 39 11 90 27
115 36 38 14 98 16 429 16 245 -1 399 -5 425 -12 44 -12 230 -72 259 -84 9 -4
17 -3 17 1 0 10 -35 27 -90 45 -62 19 -90 31 -90 38 0 3 39 7 86 8 60 1 90 6
95 15 7 11 16 344 11 426 0 12 -17 41 -36 64 -20 23 -35 42 -33 43 1 1 20 0
43 -2 l41 -5 -5 -424 -5 -424 39 0 c22 0 48 8 59 17 20 15 20 15 -2 10 -22 -5
-23 -3 -23 69 0 41 4 74 9 74 8 0 128 -42 186 -65 14 -6 17 -5 10 3 -6 6 -40
22 -75 35 -132 48 -140 56 -125 133 l6 34 362 -1 362 -1 -53 -25 c-61 -29 -64
-39 -6 -19 85 30 114 37 124 31 5 -3 10 -2 10 3 0 11 268 4 335 -9 156 -29
148 -24 162 -105 7 -38 17 -93 23 -121 11 -52 12 -53 47 -53 l35 0 -7 113 c-7
107 -6 114 12 112 10 0 23 -4 30 -8 6 -4 18 -5 25 -2 8 3 131 -17 274 -44 360
-70 365 -71 413 -71 23 0 50 -4 59 -9 10 -5 39 -5 67 0 69 11 406 24 605 23
128 0 178 -5 225 -18 33 -10 65 -22 70 -26 6 -4 25 -11 43 -15 29 -6 46 -25
22 -25 -5 0 -10 -4 -10 -10 0 -5 9 -10 20 -10 21 0 62 -34 53 -44 -3 -3 7 -8
21 -12 15 -3 30 -4 33 0 4 3 17 -1 31 -10 14 -9 34 -13 47 -10 13 3 25 1 27
-5 5 -15 237 -76 311 -82 12 -1 17 -7 14 -19 -6 -22 -8 -22 38 -2 30 12 46 13
84 4 25 -6 74 -16 108 -24 l63 -13 4 31 c3 17 13 90 21 161 9 72 25 191 35
265 33 232 33 234 15 320 -14 71 -15 94 -5 169 15 105 32 151 80 216 64 87 70
99 70 143 0 41 -1 43 -27 40 -20 -2 -27 1 -26 12 4 29 33 385 33 408 0 13 -4
20 -10 17 -6 -4 -10 14 -11 47 -1 44 -2 48 -9 26 -4 -15 -15 -34 -23 -43 -18
-17 -47 -20 -47 -5 0 6 -12 10 -26 10 -19 0 -25 4 -20 15 3 8 -5 26 -18 40
-20 22 -32 25 -87 25 -53 0 -66 3 -77 20 -7 11 -19 20 -27 20 -8 0 -15 7 -15
15 0 9 -7 29 -16 46 -11 23 -20 29 -35 24 -12 -4 -19 -2 -19 6 0 10 -3 10 -12
1 -18 -18 -42 -15 -56 8 -7 12 -23 20 -38 20 -25 0 -54 20 -54 38 0 6 -7 12
-15 16 -8 3 -15 12 -15 20 0 15 -21 26 -51 26 -18 0 -24 15 -20 48 1 6 -7 12
-18 12 -11 0 -22 6 -24 13 -4 9 -7 9 -14 -1 -7 -9 -13 -5 -24 15 -8 16 -18 31
-24 36 -7 4 -6 10 1 15 6 4 13 15 17 24 3 9 14 17 24 17 42 -1 77 9 82 22 2 8
13 22 24 31 15 14 18 26 14 52 -6 40 11 96 30 96 7 0 13 7 13 15 0 8 9 15 20
15 12 0 25 10 32 25 6 14 15 25 20 25 4 0 8 11 8 25 0 14 3 25 8 25 4 0 20 12
36 27 19 17 31 23 34 15 2 -7 10 -12 18 -12 10 0 14 12 14 40 0 22 4 40 9 40
6 0 6 12 2 28 -4 15 -6 33 -4 40 3 7 -4 12 -15 12 -11 0 -22 -5 -24 -12 -3 -9
-6 -9 -12 0 -4 7 -2 12 3 12 16 0 13 37 -3 43 -8 3 -18 26 -21 51 -4 25 -12
46 -17 46 -7 0 -8 18 -4 50 4 28 3 50 -1 50 -16 0 -44 67 -41 96 2 23 0 28
-15 26 -12 -2 -21 4 -24 17 -3 12 -9 21 -14 21 -5 0 -9 8 -9 18 0 9 -9 23 -20
30 -15 9 -18 19 -14 42 4 19 2 30 -5 30 -6 0 -11 9 -11 20 0 20 -25 28 -32 11
-2 -5 -15 -13 -30 -16 -35 -9 -37 10 -7 49 l20 26 -23 2 c-13 0 -34 0 -48 -1
-20 -1 -22 1 -10 9 8 5 11 10 5 10 -5 0 -3 4 5 10 8 5 12 12 9 15 -10 9 -39
-6 -39 -21 0 -8 -9 -14 -20 -14 -16 0 -20 7 -20 30 0 34 -30 70 -59 70 -11 0
-21 5 -23 12 -3 7 -25 13 -54 13 -37 1 -50 5 -52 18 -2 10 -21 21 -45 28 -23
7 -46 16 -52 21 -5 4 -17 8 -27 8 -11 0 -23 11 -29 28 -12 32 -49 73 -59 67
-9 -5 -28 15 -29 30 -1 15 -65 14 -76 -2 -11 -15 -45 -8 -45 8 0 5 -11 9 -25
9 -22 0 -25 4 -25 40 0 33 -3 40 -20 40 -15 0 -20 7 -20 29 0 17 -5 33 -11 37
-11 6 -10 19 7 126 5 30 3 37 -13 41 -16 4 -16 5 0 6 15 1 17 14 17 121 0 73
4 120 10 120 6 0 10 18 10 40 0 22 -4 40 -10 40 -6 0 -10 58 -10 155 l0 155
-2020 0 -2020 0 0 -57z m1420 -715 c0 -19 -2 -20 -10 -8 -13 19 -13 30 0 30 6
0 10 -10 10 -22z m138 -80 c61 -60 68 -79 53 -148 -6 -28 -9 -61 -6 -73 3 -12
-6 -56 -19 -97 -15 -46 -21 -81 -16 -90 11 -20 47 -38 85 -43 l30 -3 -27 -12
c-17 -7 -28 -19 -28 -31 0 -17 -6 -19 -57 -17 -32 2 -65 6 -73 10 -18 8 -106
206 -115 259 -3 21 -2 44 3 50 5 7 13 39 17 71 8 65 23 107 43 119 7 5 17 20
22 33 5 13 15 24 22 24 8 0 37 -23 66 -52z m-56 -561 c18 -18 60 -47 93 -63
52 -25 70 -29 137 -27 88 2 123 16 166 69 37 44 54 38 46 -17 -5 -32 -4 -39
10 -39 9 0 19 8 23 18 15 41 25 43 49 11 12 -17 21 -38 19 -47 -12 -63 -16
-150 -7 -156 11 -7 17 15 27 102 4 28 9 52 13 52 19 0 42 -37 42 -69 0 -27 -3
-32 -10 -21 -8 12 -10 9 -10 -12 0 -15 -4 -30 -10 -33 -5 -3 -10 -26 -10 -50
0 -38 -2 -43 -20 -38 -11 3 -30 19 -41 35 -17 23 -26 28 -48 24 -14 -3 -33 -1
-41 4 -13 9 -12 10 4 8 10 -2 21 2 23 9 6 16 -36 28 -50 14 -13 -13 -30 -15
-22 -2 7 13 -23 41 -44 41 -10 0 -24 -12 -32 -27 l-14 -26 -5 29 c-7 39 -53
47 -71 12 -16 -31 -14 -29 -33 -22 -16 6 -16 8 0 25 15 17 15 18 -9 24 -36 9
-47 -1 -47 -41 0 -46 -11 -43 -35 9 -16 33 -25 42 -45 42 -27 0 -28 -4 -15
-67 7 -34 5 -36 -24 -43 -57 -12 -33 -26 34 -19 55 6 65 4 65 -9 0 -8 6 -17
13 -20 6 -2 -4 -4 -23 -5 -19 0 -38 4 -41 10 -5 8 -13 6 -24 -5 -22 -22 -103
-23 -112 -2 -3 9 -18 22 -34 31 -30 15 -41 41 -14 30 13 -5 20 5 16 27 -2 13
16 7 32 -10 8 -10 19 -31 22 -46 4 -16 11 -25 16 -20 5 5 -1 30 -13 56 -18 40
-25 46 -44 41 -32 -8 -48 4 -33 22 19 23 0 33 -71 40 -96 10 -132 50 -67 77
17 8 51 30 74 50 48 40 96 55 118 37 12 -10 16 -9 21 4 9 23 18 20 56 -17z
m-578 -32 c38 -16 49 -48 20 -59 -21 -8 -104 29 -104 47 0 31 28 35 84 12z
m229 -32 c15 -15 -15 -28 -62 -27 -54 1 -67 6 -56 23 7 12 107 15 118 4z
m-344 -29 c36 -45 30 -53 -64 -91 -34 -13 85 -16 132 -2 23 6 61 27 83 46 39
34 43 35 83 25 23 -6 54 -13 70 -17 25 -5 27 -9 27 -53 0 -27 6 -56 13 -66 11
-15 17 -16 40 -5 21 10 33 10 53 0 15 -6 24 -15 20 -18 -5 -6 -20 -8 -88 -11
-23 -2 -28 -7 -28 -27 0 -18 -5 -25 -20 -25 -11 0 -37 -9 -57 -20 l-38 -20 55
1 c52 0 147 15 125 19 -17 3 29 19 58 19 20 1 27 6 27 21 0 12 7 20 16 20 10
0 14 6 10 15 -8 22 3 18 41 -15 l35 -31 -29 7 c-23 6 -26 4 -15 -7 9 -10 46
-15 130 -16 115 -3 117 -3 114 -25 -2 -13 -5 -24 -7 -26 -7 -7 -135 -22 -275
-32 -304 -20 -456 -30 -493 -30 -26 0 -36 -4 -31 -11 8 -14 103 -10 514 21
146 11 282 25 303 32 38 12 63 4 37 -12 -16 -10 -41 -13 -257 -31 -78 -7 -140
-16 -137 -21 3 -4 -13 -8 -36 -8 -24 0 -39 4 -35 10 6 9 -17 8 -170 -11 -44
-5 -94 -9 -112 -9 -17 0 -34 -4 -38 -10 -4 -6 5 -7 25 -3 31 6 31 5 28 -28 -3
-34 -3 -34 -53 -32 -27 1 -118 3 -201 6 -143 4 -154 6 -190 31 -21 14 -33 26
-26 26 9 0 8 7 -4 25 -9 15 -13 25 -8 24 5 -2 24 1 41 5 32 7 32 8 19 35 -8
15 -17 43 -21 64 -8 40 8 74 49 110 12 10 35 30 51 46 17 15 55 41 85 59 30
17 66 41 80 52 33 26 45 25 69 -6z m940 -171 c3 -2 0 -8 -6 -14 -12 -12 -66 9
-57 22 5 8 52 2 63 -8z m206 -163 c4 -6 -14 -9 -47 -8 l-53 1 45 7 c25 4 46 8
47 8 1 1 5 -2 8 -8z m-695 -235 c0 -2 -17 -16 -37 -30 l-38 -25 -6 22 c-3 13
-4 26 -2 31 4 7 83 10 83 2z m187 -25 c7 -10 10 -26 7 -34 -3 -8 -1 -17 5 -21
21 -12 11 -25 -19 -25 -30 0 -40 13 -19 26 6 4 8 20 4 40 -7 38 4 44 22 14z
m-656 -37 c-9 -16 -10 -15 -11 8 0 14 3 29 8 33 12 12 14 -22 3 -41z m591 -8
c5 -24 4 -25 -30 -19 -27 5 -34 4 -30 -7 3 -8 22 -16 44 -19 33 -5 28 -7 -39
-14 -43 -4 -81 -6 -83 -3 -3 2 20 18 50 35 30 17 57 36 61 42 11 17 22 11 27
-15z m188 3 c0 -6 -7 -7 -16 -4 -9 3 -20 6 -25 6 -5 0 -9 4 -9 9 0 4 11 6 25
3 14 -2 25 -9 25 -14z m1093 -5 c-13 -2 -33 -2 -45 0 -13 2 -3 4 22 4 25 0 35
-2 23 -4z m75 0 c-10 -2 -26 -2 -35 0 -10 3 -2 5 17 5 19 0 27 -2 18 -5z
m-726 -89 c95 -15 188 -29 206 -31 17 -3 32 -9 32 -14 0 -20 -35 -21 -133 -1
-293 60 -388 57 -680 -22 -105 -28 -146 -35 -228 -35 -98 0 -99 0 -99 23 0 13
7 27 16 30 20 8 178 25 289 31 44 3 127 14 185 24 143 26 211 25 412 -5z
m-997 -44 c-3 -5 -11 -10 -16 -10 -6 0 -7 5 -4 10 3 6 11 10 16 10 6 0 7 -4 4
-10z m-62 -52 c-67 -72 -111 -152 -138 -251 l-14 -52 1 74 c1 40 7 78 13 85 6
6 23 32 37 57 28 48 100 119 120 119 7 0 -2 -15 -19 -32z m177 -27 c0 -12 -20
-25 -27 -18 -7 7 6 27 18 27 5 0 9 -4 9 -9z m120 -41 c0 -14 -7 -20 -21 -20
-12 0 -19 -5 -16 -12 2 -7 9 -13 15 -13 13 0 15 -6 6 -35 -3 -11 -10 -20 -17
-20 -8 0 -8 -3 0 -11 14 -14 45 -4 42 13 -4 22 20 68 34 68 19 0 28 -11 19
-24 -9 -12 -36 -121 -37 -148 0 -9 -8 -23 -18 -30 -15 -11 -16 -18 -7 -44 10
-28 15 -31 51 -30 43 1 46 3 23 21 -15 11 -15 14 1 38 29 45 45 35 45 -28 0
-30 4 -55 8 -55 12 0 32 47 32 75 0 13 6 28 14 32 24 13 46 66 46 110 0 33 -3
41 -17 39 -9 -2 -20 -11 -24 -22 -6 -16 -8 -15 -8 8 -1 15 -5 30 -11 33 -12 8
-7 42 9 58 9 9 14 9 22 -3 8 -11 12 -12 16 -2 7 17 23 15 23 -3 0 -12 4 -12
29 2 24 14 32 15 60 3 18 -7 45 -25 61 -40 26 -24 28 -31 20 -61 -5 -19 -16
-70 -24 -114 -8 -44 -26 -111 -39 -150 -14 -38 -30 -90 -36 -115 -6 -25 -20
-76 -30 -115 -47 -170 -62 -299 -59 -499 1 -131 -2 -198 -10 -212 -6 -12 -13
-68 -16 -125 -2 -57 -9 -135 -16 -172 -7 -38 -10 -84 -7 -103 5 -29 3 -34 -14
-34 -23 0 -25 26 -5 91 10 31 11 59 6 90 -5 24 -6 48 -3 54 2 5 -2 2 -11 -9
-18 -22 -31 -115 -22 -152 6 -21 4 -25 -11 -22 -15 3 -18 14 -18 75 0 83 -19
120 -30 59 -4 -20 -5 -48 -2 -62 3 -19 1 -24 -12 -22 -23 5 -33 83 -26 212 6
109 16 143 56 195 30 37 24 62 -6 26 -29 -36 -32 -21 -6 32 64 131 65 140 50
332 -7 97 -12 222 -11 278 1 57 -3 105 -8 108 -16 10 -12 25 5 19 16 -7 31 36
21 61 -8 23 -24 18 -40 -12 -12 -22 -15 -24 -16 -9 0 40 -80 115 -80 76 0 -17
-36 -11 -53 8 -10 11 -14 27 -10 42 3 14 2 22 -2 17 -14 -12 -16 -50 -4 -58
13 -8 5 -39 -10 -39 -5 0 -27 18 -49 40 -22 22 -45 40 -51 40 -6 0 -11 7 -11
15 0 31 -30 75 -51 75 -15 0 -20 5 -17 23 2 17 11 23 37 25 27 3 33 0 28 -12
-4 -9 4 -23 20 -35 15 -12 23 -27 20 -35 -8 -20 32 -33 45 -15 4 8 11 26 15
42 7 33 27 37 21 3 -4 -19 -1 -22 14 -18 21 5 22 15 7 43 -8 16 -7 25 6 39 17
19 15 23 -30 54 -16 12 -17 18 -8 39 9 18 17 23 35 20 13 -2 32 3 43 11 25 20
25 20 25 -4z m110 -9 c0 -6 -4 -13 -10 -16 -5 -3 -10 1 -10 9 0 9 5 16 10 16
6 0 10 -4 10 -9z m-216 -87 c9 -3 16 -15 16 -26 0 -15 -5 -19 -19 -15 -15 4
-23 -4 -35 -32 -18 -44 -21 -16 -4 39 13 42 16 44 42 34z m101 -285 c11 -17 0
-20 -21 -4 -17 13 -17 14 -2 15 9 0 20 -5 23 -11z m-245 -9 c0 -5 -2 -10 -4
-10 -3 0 -8 5 -11 10 -3 6 -1 10 4 10 6 0 11 -4 11 -10z m60 -41 c14 -9 42
-20 63 -24 42 -8 55 -20 32 -29 -12 -4 -13 -10 -5 -25 13 -26 13 -31 -5 -31
-8 0 -15 4 -15 8 0 5 -28 37 -62 72 -61 60 -62 67 -8 29z m190 -18 c0 -10 -50
-25 -57 -17 -3 2 -2 9 2 15 8 13 55 15 55 2z m4170 -166 c10 -12 9 -16 -5 -21
-19 -8 -40 9 -31 25 10 15 21 14 36 -4z m-4250 -355 c0 -183 -4 -320 -9 -320
-5 0 -9 138 -10 320 0 198 3 320 9 320 6 0 10 -122 10 -320z m1920 -117 c0
-13 -20 -19 -20 -5 0 4 -3 18 -6 32 -5 24 -5 24 10 6 9 -11 16 -26 16 -33z
m16 -28 c-23 -17 -36 -19 -36 -6 0 5 8 12 18 14 32 9 37 6 18 -8z m-1007 -57
c0 -45 -3 -57 -9 -43 -12 28 -12 105 0 105 6 0 10 -27 9 -62z m541 -14 c0 -20
-45 -104 -55 -104 -11 0 -11 6 -2 30 6 17 15 30 20 30 4 0 5 4 2 10 -3 5 0 16
7 24 13 15 28 21 28 10z m-324 -451 c-10 -11 -26 18 -25 47 0 24 1 23 16 -7 9
-18 13 -36 9 -40z m-846 -118 c7 -9 10 -18 7 -21 -10 -11 -37 5 -37 21 0 19
14 19 30 0z m2917 -196 c6 -6 9 -17 6 -24 -2 -8 4 -15 14 -18 10 -2 5 -3 -12
-1 -29 4 -45 18 -45 42 0 15 22 16 37 1z"/>
<path d="M7463 7692 c2 -23 -2 -27 -20 -25 -30 4 -29 -13 2 -33 21 -14 31 -15
51 -5 17 8 24 17 20 27 -3 9 -6 19 -6 24 0 4 -11 15 -24 24 -24 15 -25 15 -23
-12z"/>
<path d="M7435 7570 c-8 -13 37 -31 49 -20 4 5 5 13 2 19 -9 14 -43 14 -51 1z"/>
<path d="M7510 7211 c14 -11 30 -21 35 -21 11 0 -7 14 -40 31 -13 7 -12 3 5
-10z"/>
<path d="M6440 6785 c-15 -18 -13 -20 18 -29 13 -5 22 -3 22 3 0 6 -4 11 -10
11 -5 0 -10 4 -10 9 0 6 17 12 38 14 l37 4 -41 1 c-27 1 -46 -3 -54 -13z"/>
<path d="M7338 6433 c7 -3 16 -2 19 1 4 3 -2 6 -13 5 -11 0 -14 -3 -6 -6z"/>
<path d="M6955 6150 c-3 -5 1 -10 9 -10 9 0 16 5 16 10 0 6 -4 10 -9 10 -6 0
-13 -4 -16 -10z"/>
<path d="M7071 6016 c-11 -13 -10 -17 3 -22 22 -8 30 1 19 21 -9 15 -11 15
-22 1z"/>
<path d="M14648 8693 c7 -3 16 -2 19 1 4 3 -2 6 -13 5 -11 0 -14 -3 -6 -6z"/>
<path d="M15218 8686 c-10 -7 -18 -18 -18 -25 0 -6 -16 -11 -39 -11 -43 0 -51
-10 -51 -66 0 -27 -4 -34 -20 -34 -17 0 -20 7 -20 40 0 22 -4 40 -10 40 -5 0
-10 -18 -10 -40 l0 -40 -45 0 c-33 0 -45 4 -45 15 0 26 -21 16 -33 -15 -7 -18
-19 -30 -29 -30 -10 0 -18 -4 -18 -10 0 -5 -18 -10 -40 -10 -39 0 -40 -1 -40
-35 l0 -35 -80 0 c-47 0 -80 -4 -80 -10 0 -5 -18 -10 -40 -10 -30 0 -40 -4
-40 -16 0 -8 -14 -27 -30 -41 -22 -18 -29 -31 -25 -44 4 -12 1 -21 -9 -25 -9
-3 -16 -17 -16 -30 0 -21 -4 -24 -40 -24 -36 0 -40 3 -40 24 0 13 -7 26 -15
30 -20 7 -19 24 3 29 9 3 -2 5 -25 6 -24 0 -43 6 -43 11 0 13 -73 2 -78 -11
-2 -5 -21 -9 -43 -9 -21 0 -39 -4 -39 -8 0 -4 -16 -14 -36 -21 -34 -12 -35
-14 -18 -32 16 -18 16 -19 -10 -19 -27 0 -28 -2 -24 -46 3 -41 0 -49 -34 -85
-29 -30 -38 -48 -38 -74 0 -19 -4 -35 -9 -35 -12 0 -71 -59 -71 -71 0 -5 13
-9 28 -9 25 0 31 -6 42 -40 7 -22 17 -40 22 -40 13 0 9 -78 -4 -84 -7 -3 33
-2 90 1 64 4 102 2 102 -4 0 -17 -13 -23 -27 -12 -10 9 -13 4 -13 -25 0 -35
-1 -36 -40 -36 -32 0 -40 -4 -40 -18 0 -9 -9 -23 -20 -30 -12 -7 -20 -23 -20
-38 0 -17 -7 -28 -20 -31 -17 -5 -20 -14 -20 -69 l0 -64 -40 0 c-32 0 -45 6
-71 35 -23 24 -38 33 -51 29 -11 -3 -20 0 -24 10 -3 9 -17 16 -30 16 -21 0
-24 4 -24 40 0 38 2 40 30 40 28 0 30 -2 30 -40 0 -23 5 -40 11 -40 8 0 9 24
4 80 -6 70 -5 80 9 80 18 0 22 16 5 22 -7 2 -12 31 -12 71 -1 64 -2 67 -25 67
-14 0 -31 -8 -38 -17 -12 -17 -13 -16 -14 5 0 19 -5 22 -42 21 -30 -2 -35 -3
-15 -6 24 -4 27 -8 27 -44 0 -32 -3 -39 -20 -39 -17 0 -20 -7 -20 -40 0 -33
-3 -40 -20 -40 -19 0 -20 -6 -19 -92 0 -51 3 -87 6 -80 7 19 25 14 21 -5 -2
-10 -10 -18 -18 -18 -8 0 -16 -10 -18 -22 -5 -31 -22 -29 -22 3 0 14 -5 35
-11 46 -6 11 -12 46 -14 77 -1 31 -4 56 -5 56 -2 0 -4 17 -5 38 -1 20 2 37 7
37 5 0 6 5 3 10 -5 8 -11 8 -20 0 -16 -13 -21 -6 -30 43 -4 20 -11 40 -16 43
-5 3 -9 20 -9 39 0 19 -5 37 -11 40 -5 4 -15 18 -20 32 -5 14 -18 27 -29 30
-11 3 -20 12 -20 19 0 8 -3 14 -8 14 -4 0 -7 75 -7 166 0 144 -2 167 -17 175
-9 5 -20 24 -23 42 -4 17 -16 44 -26 59 -11 14 -19 36 -19 47 0 12 -5 21 -10
21 -6 0 -30 18 -52 40 -23 22 -49 41 -58 41 -21 2 -27 3 -93 18 -59 13 -152 7
-163 -10 -3 -5 -21 -9 -40 -9 -19 0 -52 -9 -74 -20 -22 -11 -47 -20 -56 -20
-18 0 -97 -78 -125 -125 -87 -144 -111 -218 -102 -322 6 -69 5 -73 -15 -73
-34 0 -52 -11 -68 -41 -12 -24 -12 -29 -1 -29 8 0 19 11 25 25 13 29 24 31 42
10 7 -8 19 -15 26 -15 10 0 14 -16 14 -63 0 -35 3 -67 7 -71 4 -3 17 16 30 44
14 30 33 55 48 62 14 6 25 17 25 25 0 19 119 18 148 -2 22 -16 25 -51 5 -63
-6 -4 -13 -18 -14 -32 -3 -18 -11 -26 -29 -28 -36 -5 -44 -17 -42 -61 2 -34 0
-39 -23 -45 -26 -7 -31 -24 -16 -54 4 -9 16 -34 26 -54 9 -20 27 -39 39 -42
28 -7 72 4 56 14 -16 10 1 42 46 85 19 18 34 38 34 44 0 19 26 12 49 -15 12
-14 27 -42 34 -62 9 -29 18 -38 40 -40 15 -2 27 -8 27 -13 0 -6 10 -8 23 -4
17 5 19 4 7 -4 -8 -6 -11 -11 -6 -11 6 0 26 17 46 38 57 62 92 74 74 27 -6
-13 -9 -14 -16 -3 -7 10 -8 9 -4 -4 7 -22 -3 -50 -15 -42 -5 3 -9 -2 -9 -10 0
-9 6 -16 13 -16 23 0 44 33 58 90 7 30 16 59 21 65 4 5 8 16 8 25 0 9 9 25 20
35 25 23 27 7 5 -55 -8 -23 -15 -53 -15 -65 0 -25 -50 -134 -94 -205 -41 -66
-172 -187 -236 -217 -77 -37 -129 -40 -189 -14 -58 24 -81 27 -81 7 0 -7 -7
-19 -15 -26 -12 -10 -15 -10 -15 0 0 7 -7 10 -16 6 -21 -8 -84 57 -85 87 -2
41 3 72 14 85 10 13 -4 115 -24 169 -8 21 -10 21 -36 8 -17 -9 -41 -13 -59 -9
-19 3 -36 1 -45 -8 -8 -7 -27 -14 -44 -14 -56 -3 -197 -32 -208 -43 -8 -8 -7
-11 5 -11 21 0 28 -41 28 -169 0 -68 4 -111 12 -119 8 -8 8 -15 0 -25 -6 -7
-14 -49 -17 -93 -3 -43 -8 -86 -11 -96 -3 -9 -1 -19 3 -21 4 -3 8 -59 7 -124
0 -102 -3 -125 -23 -165 -12 -27 -20 -56 -17 -66 4 -11 0 -24 -9 -32 -14 -12
-14 -15 1 -31 10 -11 13 -25 9 -38 -3 -12 -2 -21 3 -21 5 0 9 -29 8 -65 0 -36
2 -65 5 -65 16 0 18 -33 4 -59 -8 -16 -11 -31 -8 -35 4 -3 36 -5 72 -5 36 1
58 3 49 6 -10 2 -18 8 -18 13 0 5 8 11 18 13 11 3 9 5 -8 6 -30 1 -32 12 -33
168 -1 69 2 106 11 115 6 6 12 36 12 66 0 51 1 53 23 46 30 -9 30 -8 32 -59 2
-31 -3 -51 -15 -66 -11 -11 -16 -27 -13 -35 3 -8 2 -22 -2 -31 -5 -10 -10 -29
-12 -42 -3 -19 -1 -22 14 -16 10 4 52 7 93 7 41 -1 69 1 62 4 -17 8 -44 62
-36 75 3 6 -1 16 -9 22 -15 12 -28 135 -31 292 0 39 -5 73 -11 77 -6 5 -6 11
2 19 9 9 15 9 26 0 12 -9 16 -8 20 3 7 18 -1 26 -25 26 -11 0 -16 5 -13 10 4
6 10 8 15 5 4 -3 13 2 20 10 7 8 20 15 29 15 13 0 13 2 2 9 -9 6 -11 20 -6 48
6 40 -17 137 -36 149 -12 7 -11 41 1 49 5 3 31 3 58 -1 35 -4 59 -16 88 -40
56 -50 128 -81 217 -95 72 -12 83 -11 154 10 43 12 95 36 117 52 49 36 63 37
34 4 -25 -29 -72 -55 -100 -55 -11 0 -16 -4 -13 -10 4 -6 -8 -10 -27 -10 -19
0 -51 -9 -73 -20 -22 -11 -54 -20 -71 -20 -39 0 -155 28 -168 41 -17 15 -25
10 -28 -18 -5 -41 -31 -35 -41 10 -5 20 -13 37 -18 37 -16 0 -10 -58 12 -123
12 -34 22 -79 23 -100 0 -21 2 -33 4 -27 2 5 8 8 13 4 5 -3 5 -13 -1 -24 -7
-13 -5 -26 5 -47 28 -53 17 -103 -23 -103 -41 0 -11 -17 36 -19 8 -1 11 -8 7
-20 -4 -12 0 -21 11 -25 13 -5 14 -10 6 -18 -7 -7 -8 -17 -2 -28 7 -14 5 -19
-13 -25 -18 -6 -19 -8 -5 -12 9 -2 26 0 36 6 24 13 32 5 32 -31 0 -23 4 -28
26 -28 21 0 24 -4 19 -20 -4 -11 -2 -20 4 -20 6 0 11 5 11 10 0 6 5 10 11 10
5 0 7 -4 4 -10 -3 -5 1 -10 10 -10 9 0 14 4 10 10 -6 10 45 40 70 40 9 0 18
-7 21 -15 3 -8 30 -28 60 -44 46 -25 54 -26 54 -12 0 9 7 27 16 39 14 21 14
25 -15 61 -27 34 -29 40 -16 51 9 7 13 15 10 18 -3 3 2 14 12 24 15 17 15 18
-4 18 -12 0 -23 -8 -26 -20 -3 -13 -14 -20 -30 -20 -33 0 -45 45 -23 88 24 47
125 132 157 132 15 0 39 4 53 10 27 10 34 2 15 -17 -7 -7 -9 -19 -5 -28 4 -13
10 -14 26 -5 11 6 20 17 20 25 0 21 19 28 35 15 19 -16 39 0 60 44 16 36 55
189 55 219 0 43 23 95 46 106 28 13 28 13 8 -27 -10 -20 -13 -40 -8 -54 14
-40 7 -59 -39 -109 -10 -11 -17 -30 -15 -42 4 -29 81 -34 109 -6 22 22 25 62
5 78 -8 7 -13 28 -12 49 1 30 5 38 24 40 13 2 25 -3 28 -13 5 -12 14 -14 40
-9 23 4 34 2 34 -5 0 -7 -15 -65 -34 -129 -19 -64 -39 -146 -45 -182 -6 -36
-15 -88 -20 -116 -5 -28 -14 -61 -20 -72 -16 -30 -14 -59 7 -79 10 -10 25 -30
35 -44 15 -25 15 -28 -3 -44 -11 -10 -17 -22 -14 -26 3 -5 -3 -9 -14 -9 -14 0
-19 -7 -18 -22 1 -18 13 -28 51 -43 28 -11 90 -47 139 -80 108 -73 186 -122
206 -130 35 -15 45 -24 43 -43 -2 -15 5 -21 30 -25 18 -4 42 -9 55 -13 24 -7
24 -3 6 67 -2 8 -19 23 -37 32 -31 15 -29 16 88 16 67 1 215 -4 330 -10 l209
-10 346 -173 c318 -159 354 -175 465 -201 66 -16 126 -33 133 -39 8 -6 12 -20
9 -36 -5 -23 0 -28 63 -58 37 -17 71 -32 74 -32 4 0 18 -7 32 -17 19 -12 22
-18 12 -24 -10 -7 -9 -9 5 -9 11 0 17 8 18 23 1 16 2 18 6 5 7 -26 22 -22 29
7 10 42 -3 76 -29 72 -12 -2 -16 -2 -9 0 7 3 12 21 12 44 0 21 5 39 11 39 6 0
9 6 6 13 -2 6 -11 11 -19 9 -8 -1 -32 17 -55 40 -44 47 -82 78 -95 78 -4 0 -8
9 -8 20 0 11 -9 29 -21 41 -12 12 -18 27 -14 39 8 24 -13 106 -31 121 -9 7
-14 31 -14 62 0 35 -5 53 -17 62 -12 9 -18 32 -21 79 -4 58 -2 69 17 85 11 10
21 21 21 25 0 10 39 46 50 46 5 0 15 9 22 20 11 17 24 20 90 20 45 0 78 -4 78
-10 0 -5 18 -10 39 -10 22 0 41 -5 44 -12 3 -9 10 -7 21 7 l16 20 16 -20 c11
-14 18 -16 21 -7 3 7 22 12 44 12 32 0 39 3 39 20 0 17 7 20 40 20 38 0 60 20
23 20 -17 1 -17 1 0 14 16 12 17 64 17 829 0 450 -4 817 -9 819 -4 2 -5 28 0
58 4 30 8 92 8 137 1 78 0 83 -30 113 -21 21 -37 29 -50 25 -24 -8 -159 5
-159 15 0 4 14 10 30 14 17 3 30 10 30 15 0 5 -13 14 -30 21 -26 11 -30 18
-30 51 l0 39 -262 0 c-199 -1 -267 -4 -280 -14z m702 -221 c0 -18 4 -18 -45 0
l-40 14 43 1 c31 0 42 -4 42 -15z m-3528 -1076 c-1 -40 -8 -46 -21 -20 -14 25
-4 78 12 62 5 -5 10 -24 9 -42z m1218 -37 c47 -43 90 -214 69 -269 -5 -14 -7
-28 -4 -31 3 -3 5 0 5 6 0 7 5 12 10 12 6 0 10 -7 10 -16 0 -8 7 -22 15 -30 8
-8 17 -31 20 -52 3 -20 9 -55 14 -77 6 -25 6 -41 0 -43 -17 -7 -9 -40 11 -45
29 -7 28 -57 -1 -57 -12 0 -17 -4 -13 -11 3 -6 15 -9 25 -6 10 3 22 0 27 -7
14 -17 24 -66 14 -66 -5 0 -19 -8 -31 -19 -20 -18 -176 -61 -220 -61 -17 0
-21 6 -21 34 0 19 5 38 11 41 7 5 6 11 -4 18 -11 10 -12 31 -5 112 5 55 9 127
11 159 2 67 16 80 35 36 14 -31 48 -48 64 -32 12 12 -1 82 -16 82 -6 0 -20 18
-30 40 -16 33 -18 52 -13 115 5 59 4 75 -6 75 -8 0 -19 -12 -26 -27 -8 -16
-17 -36 -22 -45 -5 -10 -9 -25 -9 -33 0 -20 -68 -20 -93 -1 -25 19 -19 69 8
74 11 3 17 1 13 -3 -4 -4 -3 -16 3 -27 12 -23 64 -22 65 2 0 8 13 41 28 72 15
32 24 63 20 69 -4 7 -23 9 -51 5 -30 -4 -42 -2 -37 5 19 32 90 33 124 1z
m-1210 -26 c0 -8 -4 -17 -9 -21 -12 -7 -24 12 -16 25 9 15 25 12 25 -4z m970
-43 c-1 -18 -19 -35 -29 -28 -9 5 -9 10 0 21 12 15 29 19 29 7z m-134 -55 c-8
-47 -19 -64 -35 -54 -26 16 -4 96 26 96 13 0 14 -7 9 -42z m-885 -9 c11 -38
10 -99 -1 -99 -15 0 -19 17 -23 78 -3 54 12 67 24 21z m809 -33 c0 -2 -3 -11
-6 -20 -9 -23 -24 -20 -24 4 0 11 7 20 15 20 8 0 15 -2 15 -4z m60 -55 c0 -28
-14 -70 -21 -65 -5 3 -23 -8 -39 -25 -30 -30 -38 -51 -20 -51 20 0 10 -38 -12
-44 -36 -9 -58 -7 -58 5 0 7 16 46 36 87 30 62 38 72 46 58 9 -17 11 -17 29 0
10 9 19 23 19 31 0 7 5 13 10 13 6 0 10 -4 10 -9z m-210 -56 c0 -28 -43 -128
-64 -149 -11 -11 -20 -25 -18 -30 6 -18 -53 -125 -74 -135 -11 -5 -29 -26 -38
-46 -15 -31 -16 -44 -6 -83 8 -35 8 -47 -1 -53 -22 -13 -41 3 -64 55 -13 29
-30 58 -39 65 -11 10 -14 24 -9 56 5 37 2 45 -16 54 -12 7 -21 21 -21 36 0 13
-4 27 -10 30 -5 3 -10 20 -10 36 0 17 -6 32 -15 35 -8 4 -15 12 -15 20 0 8 -5
14 -12 14 -9 0 -9 3 0 12 7 7 12 29 12 50 0 48 14 49 71 3 24 -19 52 -35 62
-35 10 0 28 -11 41 -25 36 -39 95 -35 141 9 19 19 35 43 35 55 0 11 8 25 18
30 24 14 32 13 32 -4z m-141 -8 c-9 -7 -14 -18 -12 -24 3 -8 -5 -13 -21 -13
-34 0 -33 4 7 29 35 23 52 28 26 8z m206 -169 c-1 -16 -8 -23 -23 -24 -13 -1
-22 5 -22 12 0 8 7 14 15 14 8 0 15 5 15 10 0 6 4 10 8 10 5 0 8 -10 7 -22z
m-802 -33 c-3 -9 -8 -14 -10 -11 -3 3 -2 9 2 15 9 16 15 13 8 -4z m27 -101 c0
-24 5 -44 10 -44 6 0 10 -4 10 -9 0 -16 -39 -6 -54 14 -15 20 -22 76 -10 87 3
3 14 4 25 1 15 -4 19 -14 19 -49z m510 -218 c0 -11 -19 -15 -25 -6 -3 5 1 10
9 10 9 0 16 -2 16 -4z m714 -40 c-7 -30 -11 -32 -35 -10 -17 16 -17 17 4 34
27 22 40 12 31 -24z"/>
<path d="M13615 6759 c-4 -6 -5 -13 -2 -16 7 -7 27 6 27 18 0 12 -17 12 -25
-2z"/>
<path d="M13640 6696 c0 -8 5 -18 10 -21 6 -3 10 3 10 14 0 12 -4 21 -10 21
-5 0 -10 -6 -10 -14z"/>
<path d="M13781 6674 c0 -11 3 -14 6 -6 3 7 2 16 -1 19 -3 4 -6 -2 -5 -13z"/>
<path d="M14960 8670 c0 -5 5 -10 10 -10 6 0 10 5 10 10 0 6 -4 10 -10 10 -5
0 -10 -4 -10 -10z"/>
<path d="M14880 8614 c0 -9 5 -14 12 -12 18 6 21 28 4 28 -9 0 -16 -7 -16 -16z"/>
<path d="M5628 8593 c6 -2 18 -2 25 0 6 3 1 5 -13 5 -14 0 -19 -2 -12 -5z"/>
<path d="M5023 8583 c9 -2 23 -2 30 0 6 3 -1 5 -18 5 -16 0 -22 -2 -12 -5z"/>
<path d="M5530 8566 c0 -33 10 -57 21 -50 16 9 11 74 -6 74 -9 0 -15 -9 -15
-24z"/>
<path d="M15840 8570 c0 -13 7 -20 20 -20 23 0 26 10 8 28 -18 18 -28 15 -28
-8z"/>
<path d="M4212 8463 c-23 -60 -82 -286 -82 -315 0 -10 10 -20 25 -24 14 -3 25
-13 25 -21 0 -8 7 -13 18 -11 12 2 18 14 20 41 3 29 7 37 23 37 20 0 26 15 9
25 -5 3 -10 1 -10 -5 0 -6 -5 -8 -10 -5 -6 4 -9 63 -8 156 2 82 2 149 2 149
-1 0 -6 -12 -12 -27z"/>
<path d="M5025 8451 c-8 -27 11 -54 21 -28 3 9 1 24 -4 33 -9 16 -10 15 -17
-5z"/>
<path d="M4325 8444 c-9 -9 -13 -19 -10 -22 3 -3 11 0 17 6 7 7 20 12 31 12
10 0 15 5 12 10 -9 15 -31 12 -50 -6z"/>
<path d="M4047 8423 c-4 -6 0 -19 8 -29 11 -15 14 -16 15 -4 0 21 -16 44 -23
33z"/>
<path d="M3936 8411 c-3 -5 1 -11 9 -15 22 -8 18 -26 -5 -26 -23 0 -24 -1 -8
-35 22 -50 48 -26 48 46 0 32 -3 39 -19 39 -11 0 -22 -4 -25 -9z"/>
<path d="M4396 8394 c-10 -26 4 -37 25 -18 10 9 19 21 19 26 0 15 -38 8 -44
-8z"/>
<path d="M5381 8290 c-6 -25 -21 -63 -31 -86 -11 -23 -20 -46 -20 -51 0 -5 -9
-18 -20 -28 -11 -10 -20 -22 -20 -27 0 -5 -12 -24 -26 -43 -19 -26 -23 -38
-15 -52 5 -10 12 -26 15 -36 5 -16 17 -18 116 -15 60 2 114 8 119 13 5 6 11
29 14 53 l5 42 -54 0 c-61 0 -57 -8 -55 110 1 36 -2 88 -7 115 l-9 50 -12 -45z"/>
<path d="M4405 8290 c-19 -8 -19 -9 2 -9 12 -1 25 4 28 9 7 12 -2 12 -30 0z"/>
<path d="M4270 8226 c0 -9 5 -16 10 -16 6 0 10 4 10 9 0 6 -4 13 -10 16 -5 3
-10 -1 -10 -9z"/>
<path d="M4305 8200 c3 -5 8 -10 11 -10 2 0 4 5 4 10 0 6 -5 10 -11 10 -5 0
-7 -4 -4 -10z"/>
<path d="M3978 8163 c6 -2 18 -2 25 0 6 3 1 5 -13 5 -14 0 -19 -2 -12 -5z"/>
<path d="M3971 8051 c-20 -37 -106 -485 -96 -501 3 -6 26 -10 50 -10 38 0 46
-4 57 -27 12 -25 20 -29 74 -33 34 -3 68 -11 76 -18 9 -7 20 -12 24 -11 5 1
16 0 24 -4 8 -3 25 -8 38 -10 19 -5 21 -3 11 9 -9 11 -9 18 3 32 8 9 18 25 21
35 9 25 67 19 67 -7 0 -7 11 -19 25 -26 14 -7 25 -17 25 -22 0 -12 -12 -9 -34
7 -22 16 -56 4 -56 -20 0 -8 -6 -15 -12 -15 -7 -1 0 -8 16 -17 19 -10 43 -13
69 -10 24 3 55 0 76 -9 40 -15 187 -58 239 -69 48 -10 39 11 -10 22 l-43 10
27 11 c34 14 48 41 47 89 l-1 38 -11 -35 c-14 -46 -54 -80 -94 -80 -17 0 -35
5 -38 10 -4 6 -11 7 -17 4 -12 -8 -88 25 -88 38 0 6 -9 21 -20 35 -22 29 -26
63 -9 80 9 9 9 19 0 41 -9 21 -9 45 -2 93 6 35 11 101 11 146 0 45 4 83 10 85
24 8 -12 29 -75 42 -39 8 -123 33 -189 54 l-118 39 -13 -31 c-7 -17 -15 -75
-19 -128 -6 -94 -6 -98 14 -98 13 0 20 -7 20 -20 0 -22 -24 -27 -37 -7 -5 8
-10 2 -14 -18 -14 -62 -11 -75 17 -75 19 0 25 -4 22 -17 -3 -12 -12 -17 -30
-16 -19 1 -28 -5 -34 -20 -6 -19 -8 -16 -11 15 -5 48 35 399 48 414 6 8 4 14
-7 18 -22 8 -22 8 -33 -13z m319 -245 c5 -13 14 -27 19 -31 14 -8 15 -65 2
-65 -6 0 -13 5 -16 10 -3 6 -15 10 -25 10 -23 0 -37 20 -21 29 6 4 9 15 5 24
-7 21 1 47 16 47 6 0 15 -11 20 -24z m47 -151 c1 -30 -3 -37 -33 -51 -29 -14
-37 -14 -50 -3 -15 12 -14 15 6 31 12 10 19 22 15 28 -10 17 4 30 34 30 24 0
27 -4 28 -35z"/>
<path d="M4296 8056 c3 -9 15 -16 25 -16 10 0 18 -5 17 -12 -2 -7 13 -15 35
-18 20 -4 37 -3 37 2 0 4 12 8 26 8 48 0 8 27 -49 33 -28 3 -62 9 -75 12 -18
6 -21 4 -16 -9z"/>
<path d="M11960 8030 c-9 -6 -10 -10 -3 -10 6 0 15 5 18 10 8 12 4 12 -15 0z"/>
<path d="M4995 7950 c3 -5 24 -10 46 -10 21 0 39 5 39 10 0 6 -21 10 -46 10
-27 0 -43 -4 -39 -10z"/>
<path d="M12526 7891 c-18 -20 -15 -51 6 -78 20 -25 27 -12 26 42 -2 60 -6 65
-32 36z"/>
<path d="M11865 7809 c-4 -6 -5 -12 -2 -15 2 -3 7 2 10 11 7 17 1 20 -8 4z"/>
<path d="M12960 7645 c0 -14 -5 -25 -12 -25 -6 0 -9 -2 -6 -5 3 -3 13 -3 22 1
17 7 23 54 6 54 -5 0 -10 -11 -10 -25z"/>
<path d="M5278 7574 c2 -19 8 -34 12 -34 5 0 15 -7 23 -15 12 -12 13 -21 5
-43 -6 -16 -8 -37 -4 -47 6 -17 7 -17 21 1 31 41 5 148 -40 165 -19 6 -20 3
-17 -27z"/>
<path d="M12498 7573 c7 -3 16 -2 19 1 4 3 -2 6 -13 5 -11 0 -14 -3 -6 -6z"/>
<path d="M12309 7558 c23 -6 37 -6 44 1 8 8 -2 11 -33 10 l-45 -1 34 -10z"/>
<path d="M13088 7553 c6 -2 18 -2 25 0 6 3 1 5 -13 5 -14 0 -19 -2 -12 -5z"/>
<path d="M13120 7469 c-47 -44 -98 -87 -115 -96 -48 -26 -10 -27 43 -2 52 25
138 108 153 147 5 14 8 26 7 27 -2 2 -41 -33 -88 -76z"/>
<path d="M11786 7533 c-3 -3 -6 -19 -6 -35 0 -24 4 -28 30 -28 32 0 40 14 15
24 -8 3 -15 12 -15 20 0 17 -14 28 -24 19z"/>
<path d="M5621 7507 c2 -1 12 -9 22 -16 14 -12 17 -11 17 3 0 10 -8 16 -22 16
-12 0 -19 -1 -17 -3z"/>
<path d="M10700 7500 c0 -5 5 -10 10 -10 6 0 10 5 10 10 0 6 -4 10 -10 10 -5
0 -10 -4 -10 -10z"/>
<path d="M10802 7490 c0 -14 2 -19 5 -12 2 6 2 18 0 25 -3 6 -5 1 -5 -13z"/>
<path d="M12757 7474 c41 -57 93 -101 93 -77 0 15 -50 70 -81 87 l-33 19 21
-29z"/>
<path d="M5513 7375 c-11 -119 -4 -166 17 -111 11 30 12 167 1 206 -5 16 -11
-16 -18 -95z"/>
<path d="M15 7470 c3 -5 16 -10 28 -9 21 0 21 1 2 9 -28 12 -37 12 -30 0z"/>
<path d="M11760 7405 c0 -14 2 -25 4 -25 2 0 6 11 8 25 3 14 1 25 -3 25 -5 0
-9 -11 -9 -25z"/>
<path d="M12060 7378 c0 -13 5 -30 10 -38 7 -11 10 -5 10 23 0 20 -4 37 -10
37 -5 0 -10 -10 -10 -22z"/>
<path d="M11741 7257 c-7 -62 -15 -127 -18 -146 l-6 -34 23 23 c20 20 24 35
26 102 1 42 5 91 9 108 4 20 2 35 -8 44 -13 13 -16 1 -26 -97z"/>
<path d="M12015 7361 c-3 -6 -10 -45 -15 -88 -13 -113 -21 -146 -37 -164 -12
-15 -21 -68 -25 -160 -1 -19 -9 -29 -30 -37 -28 -10 -39 -44 -18 -57 15 -9 12
-56 -5 -89 -8 -15 -15 -35 -15 -42 0 -25 -27 -26 -90 -4 -59 21 -110 21 -110
0 0 -6 -6 -10 -14 -10 -7 0 -32 -26 -54 -59 -27 -38 -51 -61 -69 -66 -44 -11
-93 -70 -93 -113 0 -10 11 -28 25 -40 14 -12 25 -29 25 -38 0 -23 62 -123 80
-129 22 -6 159 -9 166 -3 2 3 -3 24 -12 47 -12 31 -15 61 -12 116 5 67 8 78
42 119 32 40 39 44 56 34 14 -9 25 -9 44 0 33 15 34 34 1 26 -24 -6 -24 -5
-14 27 19 57 31 63 72 39 l35 -21 26 26 c36 36 51 28 47 -24 -2 -40 -2 -42 18
-30 13 9 23 32 30 73 6 34 18 99 27 146 30 168 52 418 40 466 -4 13 -12 24
-20 24 -27 0 -39 -30 -38 -93 1 -75 -9 -55 -28 56 -13 73 -21 89 -35 68z"/>
<path d="M5065 7260 c3 -5 15 -10 25 -10 10 0 22 5 25 10 4 6 -7 10 -25 10
-18 0 -29 -4 -25 -10z"/>
<path d="M5128 7073 c12 -2 30 -2 40 0 9 3 -1 5 -23 4 -22 0 -30 -2 -17 -4z"/>
<path d="M13340 6880 c0 -5 5 -10 10 -10 6 0 10 5 10 10 0 6 -4 10 -10 10 -5
0 -10 -4 -10 -10z"/>
<path d="M12434 6777 c-2 -7 2 -26 9 -40 l14 -28 7 32 c3 17 3 35 0 40 -8 13
-24 11 -30 -4z"/>
<path d="M13345 6780 c3 -5 12 -7 20 -3 21 7 19 13 -6 13 -11 0 -18 -4 -14
-10z"/>
<path d="M13212 6748 c-7 -7 -12 -18 -12 -24 0 -7 -9 -15 -19 -19 -22 -7 -30
-37 -20 -77 9 -34 -6 -46 -30 -24 -20 18 -41 21 -41 6 0 -5 7 -10 15 -10 21 0
19 -18 -2 -22 -12 -2 -18 -14 -19 -41 -3 -34 0 -39 36 -57 48 -24 45 -25 46 3
0 12 4 30 9 41 7 15 5 17 -13 11 -30 -9 -27 3 9 37 17 17 28 36 25 44 -3 8 1
14 11 14 12 0 14 7 10 30 -5 22 -3 30 8 30 8 0 15 9 15 19 0 11 5 23 10 26 6
3 10 10 10 16 0 13 -34 11 -48 -3z"/>
<path d="M11120 6699 c0 -5 5 -7 10 -4 6 3 10 8 10 11 0 2 -4 4 -10 4 -5 0
-10 -5 -10 -11z"/>
<path d="M13307 6703 c-11 -10 -8 -41 4 -49 17 -10 34 13 21 29 -7 8 -9 17 -5
20 3 4 2 7 -4 7 -5 0 -13 -3 -16 -7z"/>
<path d="M13310 6620 c0 -5 5 -10 10 -10 6 0 10 5 10 10 0 6 -4 10 -10 10 -5
0 -10 -4 -10 -10z"/>
<path d="M13255 6574 c-11 -8 -20 -20 -20 -27 -2 -36 -19 -87 -29 -88 -19 -2
67 -27 95 -28 21 -1 28 5 31 23 3 14 1 31 -3 38 -6 8 -9 2 -9 -19 0 -26 -4
-33 -20 -33 -24 0 -25 13 -6 43 12 18 13 30 3 65 -12 47 -14 48 -42 26z"/>
<path d="M12436 6545 c4 -8 10 -15 15 -15 4 0 6 7 3 15 -4 8 -10 15 -15 15 -4
0 -6 -7 -3 -15z"/>
<path d="M12480 6459 c0 -5 5 -7 10 -4 6 3 10 8 10 11 0 2 -4 4 -10 4 -5 0
-10 -5 -10 -11z"/>
<path d="M12764 6459 c-3 -5 -14 -9 -25 -9 -10 0 -19 -4 -19 -9 0 -5 -10 -11
-22 -13 -13 -3 2 -8 33 -12 62 -9 101 -2 93 17 -6 17 -53 37 -60 26z"/>
<path d="M12002 6412 c-7 -22 -12 -67 -12 -101 l0 -61 31 0 c26 0 30 3 23 18
-8 19 -14 67 -15 122 -1 56 -14 66 -27 22z"/>
<path d="M13253 6413 c15 -2 37 -2 50 0 12 2 0 4 -28 4 -27 0 -38 -2 -22 -4z"/>
<path d="M14130 6040 c-19 -5 -61 -12 -93 -15 -61 -7 -79 -23 -57 -50 7 -8 27
-15 44 -16 17 0 25 -3 19 -6 -22 -8 -14 -21 20 -37 52 -23 88 -25 157 -11 82
18 102 18 72 1 -23 -12 -22 -13 20 -26 24 -7 47 -17 52 -21 5 -4 -71 -8 -169
-9 -156 0 -184 2 -236 20 -59 21 -108 24 -100 5 6 -13 81 -32 161 -40 86 -9
130 -23 124 -40 -4 -8 11 -19 41 -31 39 -14 56 -16 96 -7 27 5 49 6 49 1 0 -4
25 -8 55 -8 30 0 55 4 55 8 0 9 -99 38 -160 46 -85 12 -80 26 9 26 65 0 89 -4
103 -17 16 -14 43 -17 161 -18 78 -1 153 -6 167 -11 21 -9 45 -10 145 -4 6 0
-8 11 -30 25 l-40 24 35 1 c26 0 31 3 20 10 -12 8 -12 10 4 16 11 4 21 2 26
-7 5 -7 12 -10 17 -6 10 11 -17 27 -47 27 -14 0 -36 3 -50 6 -20 5 -22 4 -10
-6 11 -8 12 -13 3 -16 -7 -3 -9 -12 -6 -20 4 -10 -3 -14 -22 -14 -23 0 -25 2
-15 15 14 17 5 51 -15 59 -8 3 -15 2 -15 -2 0 -13 -63 -8 -67 6 -3 8 8 12 34
13 37 1 38 1 8 9 -49 13 -75 11 -75 -4 0 -8 -12 -24 -26 -35 -32 -25 -114 -30
-114 -7 0 15 -21 26 -51 26 -16 0 -18 2 -7 14 7 8 15 11 18 7 10 -15 47 -18
64 -6 21 16 5 29 -24 20 -14 -5 -20 -2 -20 9 0 9 5 16 10 16 6 0 10 6 10 13 0
6 -42 27 -93 45 -96 33 -178 40 -257 22z m120 -110 c8 -5 11 -10 5 -10 -5 0
-17 5 -25 10 -8 5 -10 10 -5 10 6 0 17 -5 25 -10z m38 -157 c-10 -2 -26 -2
-35 0 -10 3 -2 5 17 5 19 0 27 -2 18 -5z"/>
<path d="M12738 6013 c29 -2 74 -2 100 0 26 2 2 3 -53 3 -55 0 -76 -1 -47 -3z"/>
<path d="M13827 6009 c-10 -6 -71 -13 -135 -15 -64 -3 -118 -7 -122 -11 -3 -3
54 -3 127 -1 105 4 134 8 148 21 18 19 9 22 -18 6z"/>
<path d="M12957 6003 c18 -2 50 -2 70 0 21 2 7 4 -32 4 -38 0 -55 -2 -38 -4z"/>
<path d="M13240 5990 c96 -4 191 -10 210 -14 25 -6 31 -5 20 2 -10 8 -3 12 30
15 25 2 -63 3 -195 3 l-240 0 175 -6z"/>
<path d="M13498 5973 c7 -3 16 -2 19 1 4 3 -2 6 -13 5 -11 0 -14 -3 -6 -6z"/>
<path d="M13563 5963 c15 -2 37 -2 50 0 12 2 0 4 -28 4 -27 0 -38 -2 -22 -4z"/>
<path d="M13805 5930 c-4 -6 12 -10 40 -10 28 0 44 4 40 10 -3 6 -21 10 -40
10 -19 0 -37 -4 -40 -10z"/>
<path d="M14568 5913 c7 -3 16 -2 19 1 4 3 -2 6 -13 5 -11 0 -14 -3 -6 -6z"/>
<path d="M12375 5890 c-3 -5 1 -10 10 -10 9 0 13 5 10 10 -3 6 -8 10 -10 10
-2 0 -7 -4 -10 -10z"/>
<path d="M12435 5891 c-3 -5 -1 -12 5 -16 12 -7 30 2 30 16 0 12 -27 12 -35 0z"/>
<path d="M13660 5880 c8 -5 35 -9 60 -9 37 1 41 2 20 9 -38 12 -99 12 -80 0z"/>
<path d="M14898 5823 c12 -2 32 -2 45 0 12 2 2 4 -23 4 -25 0 -35 -2 -22 -4z"/>
<path d="M14888 5803 c6 -2 18 -2 25 0 6 3 1 5 -13 5 -14 0 -19 -2 -12 -5z"/>
<path d="M14926 5789 c-22 -5 -42 -12 -45 -16 -9 -9 73 8 84 18 5 5 7 9 5 8
-3 -1 -23 -5 -44 -10z"/>
<path d="M14998 5783 c7 -3 16 -2 19 1 4 3 -2 6 -13 5 -11 0 -14 -3 -6 -6z"/>
<path d="M750 5750 c-13 -9 -13 -10 0 -10 8 0 22 5 30 10 13 9 13 10 0 10 -8
0 -22 -5 -30 -10z"/>
<path d="M14778 5753 c7 -3 16 -2 19 1 4 3 -2 6 -13 5 -11 0 -14 -3 -6 -6z"/>
<path d="M14980 5751 c0 -6 11 -11 24 -11 13 0 33 -3 43 -6 13 -5 15 -4 8 4
-15 17 -75 27 -75 13z"/>
<path d="M14465 5730 c17 -4 56 -8 88 -9 31 0 57 -5 57 -11 0 -5 7 -10 16 -10
8 0 12 5 9 10 -4 6 10 10 34 10 23 0 41 5 41 10 0 6 -52 10 -137 9 -86 -1
-127 -4 -108 -9z"/>
<path d="M14360 5711 c0 -10 109 -26 118 -16 4 3 0 10 -8 15 -19 12 -110 13
-110 1z"/>
<path d="M14673 5693 c-49 -6 -40 -23 12 -23 35 0 43 3 39 15 -4 8 -9 14 -13
13 -3 0 -21 -3 -38 -5z"/>
<path d="M4385 5670 c3 -5 -2 -10 -12 -10 -15 0 -16 -2 -3 -10 23 -15 30 -12
30 10 0 11 -5 20 -11 20 -5 0 -7 -4 -4 -10z"/>
<path d="M15280 5660 c-35 -7 -34 -7 10 -8 25 0 59 4 75 8 28 7 28 8 -10 8
-22 -1 -56 -4 -75 -8z"/>
<path d="M4420 5650 c0 -5 9 -10 20 -10 11 0 20 5 20 10 0 6 -9 10 -20 10 -11
0 -20 -4 -20 -10z"/>
<path d="M15113 5633 c9 -2 25 -2 35 0 9 3 1 5 -18 5 -19 0 -27 -2 -17 -5z"/>
<path d="M15058 5623 c7 -3 16 -2 19 1 4 3 -2 6 -13 5 -11 0 -14 -3 -6 -6z"/>
<path d="M11650 5570 c-1 -8 -2 -21 -1 -28 2 -8 -5 -29 -13 -47 -9 -18 -17
-45 -18 -59 -1 -14 -7 -26 -12 -26 -5 0 -7 -3 -3 -6 3 -4 -4 -15 -16 -26 l-22
-19 32 16 c18 8 51 33 75 54 l42 39 -26 34 c-14 19 -28 45 -31 59 -2 13 -5 17
-7 9z"/>
<path d="M15380 5456 c0 -9 -4 -16 -10 -16 -5 0 -10 -18 -10 -39 0 -22 -4 -43
-10 -46 -5 -3 -10 -24 -10 -45 0 -21 -7 -72 -15 -112 -9 -40 -20 -107 -26
-148 -5 -41 -12 -86 -15 -100 -4 -14 -8 -38 -9 -55 -5 -55 -22 -83 -52 -87
-19 -2 -32 -12 -41 -30 -7 -16 -22 -33 -33 -39 -12 -6 -18 -17 -15 -24 3 -8 1
-17 -4 -20 -6 -4 -10 -17 -10 -30 0 -14 -4 -44 -10 -67 -17 -78 -50 -295 -50
-331 0 -20 -4 -38 -9 -41 -5 -3 -14 -50 -21 -103 -6 -54 -16 -117 -21 -140 -5
-23 -16 -89 -24 -145 -8 -57 -25 -177 -38 -268 -14 -91 -30 -212 -36 -270 -7
-58 -17 -123 -22 -145 -7 -34 -31 -203 -69 -495 -5 -35 -7 -67 -5 -71 4 -6 33
20 186 165 l56 53 79 -7 c43 -4 101 -14 128 -21 39 -11 50 -11 53 -1 6 17 23
15 23 -3 0 -20 42 -40 125 -58 78 -17 125 -30 170 -46 17 -6 77 -24 135 -42
58 -17 123 -37 145 -45 22 -7 50 -11 63 -8 l22 6 -2 1237 -3 1236 -22 3 c-17
3 -21 8 -17 28 4 22 1 24 -31 24 -19 0 -35 5 -35 10 0 6 -11 20 -25 32 -19 16
-25 31 -25 60 0 33 -3 38 -18 34 -10 -4 -27 1 -38 9 -10 8 -29 15 -41 15 -15
0 -21 5 -17 14 9 24 -28 65 -57 66 -15 0 -29 7 -33 15 -3 8 -12 15 -20 15 -8
0 -16 4 -18 10 -1 5 -17 11 -34 13 -16 2 -40 12 -53 23 l-22 19 28 6 c19 5 10
7 -27 6 -30 -1 -67 2 -82 7 -23 7 -28 5 -28 -8z m70 -16 c8 -5 11 -10 5 -10
-5 0 -17 5 -25 10 -8 5 -10 10 -5 10 6 0 17 -5 25 -10z m-333 -902 c-3 -7 -5
-2 -5 12 0 14 2 19 5 13 2 -7 2 -19 0 -25z m343 -1218 c22 -11 46 -20 55 -20
18 0 19 -12 3 -28 -23 -23 -77 -14 -109 18 -49 49 -20 66 51 30z m95 -80 c4
-6 -5 -10 -20 -10 -15 0 -24 4 -20 10 3 6 12 10 20 10 8 0 17 -4 20 -10z
m-195 -380 c0 -5 -2 -10 -4 -10 -3 0 -8 5 -11 10 -3 6 -1 10 4 10 6 0 11 -4
11 -10z"/>
<path d="M15655 5460 c-3 -5 -2 -10 4 -10 5 0 13 5 16 10 3 6 2 10 -4 10 -5 0
-13 -4 -16 -10z"/>
<path d="M11711 5253 c-1 -27 -21 -41 -22 -16 0 14 -2 15 -6 3 -3 -8 -16 -25
-28 -37 -12 -12 -28 -40 -35 -62 -7 -22 -17 -38 -21 -35 -14 8 -31 -35 -21
-52 5 -10 6 -32 1 -53 -5 -20 -9 -62 -9 -93 0 -50 -3 -60 -24 -73 -21 -14 -25
-26 -31 -104 -5 -59 -3 -96 4 -110 6 -11 14 -49 17 -83 5 -62 32 -148 47 -148
4 0 7 -11 7 -24 0 -13 3 -32 7 -42 6 -16 7 -16 14 2 7 17 8 17 8 2 1 -20 21
-25 21 -5 0 6 7 71 15 142 22 201 67 762 62 787 -4 23 -4 23 -6 1z"/>
<path d="M11937 5083 c-3 -32 -10 -127 -16 -211 -6 -85 -13 -157 -16 -161 -2
-4 -9 -75 -15 -157 -5 -82 -17 -222 -26 -311 -15 -152 -13 -253 5 -253 5 0 28
-19 53 -42 82 -78 108 -94 108 -65 0 11 19 241 36 433 6 74 4 86 -17 129 -13
26 -29 50 -36 52 -18 7 -16 23 2 23 11 0 13 7 9 29 -5 23 -2 32 15 43 17 10
21 23 21 65 0 42 3 53 19 58 21 6 24 20 36 156 5 50 3 68 -7 72 -7 2 -22 22
-33 43 -11 21 -28 47 -37 58 -58 71 -81 96 -88 96 -5 0 -10 -26 -13 -57z m130
-364 c-14 -8 -22 -8 -30 0 -8 8 -3 11 19 11 25 -1 27 -2 11 -11z m-57 -89 c8
-5 11 -10 5 -10 -5 0 -17 5 -25 10 -8 5 -10 10 -5 10 6 0 17 -5 25 -10z m-14
-76 c-3 -9 -6 -18 -6 -20 0 -3 -4 -3 -10 1 -11 7 -2 35 12 35 6 0 7 -7 4 -16z"/>
<path d="M4058 4863 c7 -3 16 -2 19 1 4 3 -2 6 -13 5 -11 0 -14 -3 -6 -6z"/>
<path d="M12387 4853 c-3 -5 -7 -39 -8 -78 l-4 -70 102 -5 c56 -3 103 -7 106
-10 2 -3 17 -31 32 -62 16 -32 30 -56 32 -54 5 5 -17 104 -40 181 -12 39 -20
75 -19 81 1 6 -15 14 -35 18 -53 8 -161 8 -166 -1z"/>
<path d="M12801 4812 c-47 -52 -100 -134 -111 -171 -22 -71 -32 -91 -44 -84
-8 5 -8 3 0 -8 13 -17 34 -98 34 -132 0 -14 13 -65 29 -114 22 -66 30 -114 35
-196 3 -60 9 -114 14 -120 6 -7 13 -31 17 -54 4 -24 11 -45 16 -49 5 -3 9 -13
9 -23 0 -10 7 -24 15 -31 8 -7 12 -16 9 -21 -3 -5 52 -9 125 -9 144 0 156 6
108 53 -29 29 -30 34 -37 149 -8 145 -6 198 9 207 7 4 11 32 10 68 -1 33 4 77
11 97 7 21 10 50 7 65 -3 16 2 44 14 70 10 24 19 48 19 55 0 6 16 28 34 48 24
27 36 52 41 85 4 27 13 56 22 65 13 15 12 19 -7 38 -20 20 -38 23 -154 31
-198 12 -198 12 -225 -19z m54 -192 c3 -5 15 -10 25 -10 26 0 70 -99 66 -149
-2 -21 -8 -46 -13 -56 -6 -10 -8 -35 -6 -55 4 -25 0 -46 -12 -63 -10 -16 -17
-47 -17 -81 0 -31 -5 -56 -9 -56 -5 0 -9 -13 -9 -30 0 -16 -4 -30 -10 -30 -5
0 -10 5 -10 10 0 6 -6 10 -13 10 -8 0 -36 44 -64 98 -61 116 -75 206 -50 303
20 74 36 98 72 108 41 12 43 12 50 1z"/>
<path d="M13375 4794 c-11 -8 -26 -19 -33 -23 -6 -4 -21 -33 -32 -65 -20 -57
-20 -59 -3 -105 28 -71 25 -309 -4 -461 -21 -104 -55 -352 -49 -357 2 -2 625
-33 666 -33 17 0 20 6 20 45 0 40 -3 47 -27 57 -16 7 -39 19 -53 28 -14 9 -44
22 -67 29 -47 13 -61 38 -15 26 26 -6 26 -6 7 9 -20 15 -20 15 3 16 16 0 26
-7 29 -20 3 -11 12 -20 20 -20 7 0 31 -9 53 -20 22 -11 50 -20 62 -20 19 0 20
-2 8 -10 -13 -9 -13 -10 0 -10 13 0 13 -1 0 -10 -13 -8 -13 -10 1 -10 12 0 19
11 22 38 3 20 10 62 15 92 19 104 32 205 38 285 3 44 9 94 13 110 10 47 6 175
-8 225 -8 30 -10 70 -6 118 4 39 5 72 3 73 -19 6 -377 26 -493 27 -123 2 -154
-1 -170 -14z m625 -49 c0 -9 -6 -12 -16 -8 -13 5 -13 7 -2 14 17 11 18 11 18
-6z m-34 -434 c7 -1 11 -20 10 -51 -1 -34 3 -50 12 -50 7 0 4 -8 -8 -20 -11
-11 -30 -20 -43 -20 -13 0 -27 -4 -32 -9 -16 -15 -149 -26 -141 -12 4 7 2 19
-5 27 -10 12 -8 19 11 39 20 22 21 25 6 31 -33 13 -15 25 27 19 34 -5 48 -3
60 10 10 9 17 20 17 25 0 9 36 17 60 14 8 -1 20 -3 26 -3z m-586 -431 c0 -5
-5 -10 -11 -10 -5 0 -7 5 -4 10 3 6 8 10 11 10 2 0 4 -4 4 -10z"/>
<path d="M14297 4633 c-18 -144 -27 -212 -73 -533 -15 -107 -28 -226 -28 -263
l-1 -69 50 -19 c28 -11 81 -31 118 -44 89 -32 158 -66 151 -76 -2 -4 -24 0
-47 10 -45 19 -201 71 -214 71 -4 0 35 -42 86 -94 98 -98 102 -108 76 -168 -9
-23 28 -38 91 -38 37 0 49 -5 69 -27 13 -16 26 -25 30 -21 3 3 13 50 21 105 8
54 28 184 44 288 17 105 39 263 50 352 12 89 32 226 45 304 13 78 21 148 18
156 -3 7 0 26 6 41 7 16 13 54 15 85 l4 57 -47 1 c-25 0 -82 2 -126 4 -51 2
-69 0 -50 -5 l30 -8 -32 -1 c-43 -1 -69 9 -51 20 7 5 -29 9 -87 9 -68 0 -95
-3 -85 -10 12 -8 9 -10 -12 -10 -14 0 -28 5 -30 10 -2 6 -11 -52 -21 -127z
m188 118 c3 -5 0 -13 -6 -17 -7 -4 -9 -3 -5 4 3 6 -3 12 -16 15 -23 4 -23 4
-1 6 12 0 24 -3 28 -8z m-140 -21 c-3 -5 -10 -10 -16 -10 -5 0 -9 5 -9 10 0 6
7 10 16 10 8 0 12 -4 9 -10z m404 6 c-2 -2 -35 -6 -74 -8 -40 -3 -61 -2 -50 3
19 7 132 13 124 5z m-446 -863 c-7 -2 -19 -2 -25 0 -7 3 -2 5 12 5 14 0 19 -2
13 -5z m47 -3 c0 -5 -8 -10 -17 -10 -15 0 -16 2 -3 10 19 12 20 12 20 0z"/>
<path d="M4122 4728 c3 -7 22 -14 42 -16 28 -2 37 0 34 10 -3 7 -22 14 -42 16
-28 2 -37 0 -34 -10z"/>
<path d="M14106 4397 c-4 -27 -5 -51 -2 -54 7 -7 19 61 14 84 -2 10 -8 -4 -12
-30z"/>
<path d="M3920 4375 c0 -27 18 -33 38 -13 20 20 14 38 -13 38 -20 0 -25 -5
-25 -25z"/>
<path d="M3860 4348 c0 -7 4 -19 9 -27 11 -17 25 3 17 24 -7 18 -26 20 -26 3z"/>
<path d="M5452 4311 c-10 -6 -6 -10 15 -14 15 -3 29 -1 31 3 2 5 10 6 19 3 11
-4 14 -2 9 5 -8 14 -55 16 -74 3z"/>
<path d="M7590 4290 c-9 -6 -10 -10 -3 -10 6 0 15 5 18 10 8 12 4 12 -15 0z"/>
<path d="M5510 4279 c0 -5 5 -7 10 -4 6 3 10 8 10 11 0 2 -4 4 -10 4 -5 0 -10
-5 -10 -11z"/>
<path d="M14091 4264 c0 -11 3 -14 6 -6 3 7 2 16 -1 19 -3 4 -6 -2 -5 -13z"/>
<path d="M4764 4210 c-17 -10 -40 -20 -50 -23 -16 -4 -15 -5 4 -6 32 -1 95 26
87 39 -3 5 -7 10 -8 9 -1 0 -16 -9 -33 -19z"/>
<path d="M7337 4214 c-16 -9 -26 -18 -23 -21 7 -8 66 17 66 28 0 12 -10 11
-43 -7z"/>
<path d="M14081 4214 c0 -11 3 -14 6 -6 3 7 2 16 -1 19 -3 4 -6 -2 -5 -13z"/>
<path d="M9385 4210 c-3 -5 1 -10 9 -10 8 0 18 5 21 10 3 6 -1 10 -9 10 -8 0
-18 -4 -21 -10z"/>
<path d="M9666 4158 c2 -3 -1 -8 -8 -10 -10 -4 44 -79 108 -150 29 -32 83 -41
224 -36 148 4 320 -4 375 -19 28 -7 57 -12 65 -12 20 1 -59 37 -83 38 -10 1
-20 7 -23 15 -3 8 -18 16 -33 19 -15 3 -33 17 -40 30 -8 15 -20 23 -30 21 -28
-7 -45 10 -32 35 9 15 9 27 1 41 -12 22 -30 27 -30 9 0 -7 -12 -9 -32 -5 -18
3 -102 9 -187 11 -85 3 -161 10 -171 15 -18 10 -110 9 -104 -2z m574 -128 c0
-5 -4 -10 -9 -10 -6 0 -13 5 -16 10 -3 6 1 10 9 10 9 0 16 -4 16 -10z"/>
<path d="M14072 4145 c0 -16 2 -22 5 -12 2 9 2 23 0 30 -3 6 -5 -1 -5 -18z"/>
<path d="M5515 4120 c3 -5 8 -10 11 -10 2 0 4 5 4 10 0 6 -5 10 -11 10 -5 0
-7 -4 -4 -10z"/>
<path d="M14072 4090 c0 -14 2 -19 5 -12 2 6 2 18 0 25 -3 6 -5 1 -5 -13z"/>
<path d="M14066 4044 c-4 -9 -4 -19 -1 -22 2 -3 7 3 11 12 4 9 4 19 1 22 -2 3
-7 -3 -11 -12z"/>
<path d="M6838 4043 c7 -3 16 -2 19 1 4 3 -2 6 -13 5 -11 0 -14 -3 -6 -6z"/>
<path d="M11570 3954 c0 -34 21 -70 34 -57 3 4 6 26 6 50 0 36 -3 43 -20 43
-16 0 -20 -7 -20 -36z"/>
<path d="M14057 3983 c-4 -3 -6 -25 -6 -47 l2 -41 7 45 c8 48 7 54 -3 43z"/>
<path d="M12296 3945 c-3 -9 -6 -39 -6 -66 l0 -49 50 0 c28 0 50 5 50 10 0 6
11 10 23 10 13 0 32 9 42 20 18 19 17 20 -3 20 -12 0 -22 -4 -22 -10 0 -5 -7
-10 -15 -10 -8 0 -15 8 -15 18 0 14 -2 15 -9 2 -8 -11 -17 -5 -49 29 -32 35
-40 40 -46 26z"/>
<path d="M7390 3943 c1 -26 50 -58 50 -33 0 6 -4 10 -10 10 -5 0 -10 7 -10 15
0 8 -7 15 -15 15 -8 0 -15 -3 -15 -7z"/>
<path d="M7176 3931 c-8 -12 10 -41 25 -41 13 0 11 13 -4 35 -10 13 -16 15
-21 6z"/>
<path d="M7250 3930 c0 -5 7 -10 15 -10 8 0 15 5 15 10 0 6 -7 10 -15 10 -8 0
-15 -4 -15 -10z"/>
<path d="M7320 3930 c0 -5 4 -10 9 -10 6 0 13 5 16 10 3 6 -1 10 -9 10 -9 0
-16 -4 -16 -10z"/>
<path d="M10930 3920 c-8 -5 -10 -10 -5 -10 6 0 17 5 25 10 8 5 11 10 5 10 -5
0 -17 -5 -25 -10z"/>
<path d="M10478 3913 c7 -3 16 -2 19 1 4 3 -2 6 -13 5 -11 0 -14 -3 -6 -6z"/>
<path d="M6790 3902 c0 -13 28 -47 34 -42 10 10 -6 50 -20 50 -8 0 -14 -4 -14
-8z"/>
<path d="M6872 3890 c7 -11 20 -20 28 -19 10 0 11 2 3 6 -7 2 -13 11 -13 19 0
8 -7 14 -15 14 -13 0 -13 -3 -3 -20z"/>
<path d="M7260 3900 c0 -5 7 -10 15 -10 8 0 15 5 15 10 0 6 -7 10 -15 10 -8 0
-15 -4 -15 -10z"/>
<path d="M9143 3898 c2 -7 10 -13 17 -13 7 0 15 6 18 13 2 7 -5 12 -18 12 -13
0 -20 -5 -17 -12z"/>
<path d="M6640 3890 c0 -6 7 -10 15 -10 8 0 15 2 15 4 0 2 -7 6 -15 10 -8 3
-15 1 -15 -4z"/>
<path d="M6729 3887 c6 -8 8 -17 4 -20 -3 -4 1 -7 10 -7 15 0 15 3 5 20 -7 11
-17 20 -22 20 -4 0 -3 -6 3 -13z"/>
<path d="M7032 3873 c3 -19 58 -32 58 -15 0 5 -12 7 -27 4 -21 -4 -25 -2 -20
12 4 9 2 16 -4 16 -6 0 -9 -8 -7 -17z"/>
<path d="M7365 3879 c-4 -5 0 -18 9 -28 9 -10 16 -25 16 -34 0 -9 7 -17 16
-17 13 0 15 7 10 32 -10 48 -36 73 -51 47z"/>
<path d="M14041 3875 c-1 -11 -6 -44 -10 -72 -4 -29 -4 -53 0 -53 11 0 22 79
16 116 -2 18 -5 22 -6 9z"/>
<path d="M7290 3874 c0 -27 26 -84 38 -84 11 0 13 8 7 37 -4 21 -9 41 -11 45
-6 10 -34 11 -34 2z"/>
<path d="M13161 3867 c-7 -10 -18 -17 -23 -17 -5 0 -16 -6 -24 -14 -12 -13
-11 -15 8 -19 l23 -4 -22 -2 c-34 -2 -28 -21 6 -21 22 0 31 6 41 29 6 16 10
37 8 47 -3 16 -4 16 -17 1z"/>
<path d="M6650 3860 c0 -5 5 -10 10 -10 6 0 10 5 10 10 0 6 -4 10 -10 10 -5 0
-10 -4 -10 -10z"/>
<path d="M7140 3851 c0 -12 4 -21 10 -21 5 0 7 -6 5 -12 -8 -21 12 -45 26 -31
6 6 8 17 3 25 -5 7 -8 22 -9 33 0 27 -35 33 -35 6z"/>
<path d="M7220 3856 c0 -25 22 -66 37 -66 14 0 17 12 6 24 -4 4 -8 17 -8 29 0
12 -7 23 -17 25 -11 2 -18 -3 -18 -12z"/>
<path d="M6496 3845 c-23 -17 -17 -19 18 -5 14 5 28 5 31 0 3 -4 -7 -13 -22
-18 l-28 -10 26 -1 c30 -1 48 27 27 41 -18 11 -30 10 -52 -7z"/>
<path d="M6833 3834 c-3 -8 -1 -20 6 -27 6 -6 11 -19 11 -29 0 -10 7 -18 15
-18 16 0 21 43 9 74 -8 21 -33 21 -41 0z"/>
<path d="M6686 3832 c-3 -5 -3 -25 1 -45 4 -28 10 -37 25 -37 16 0 18 5 12 38
-4 20 -9 40 -11 45 -6 10 -21 9 -27 -1z"/>
<path d="M6750 3826 c0 -8 5 -18 10 -21 6 -3 10 -17 10 -31 0 -18 5 -24 21
-24 19 0 21 4 15 31 -3 17 -6 38 -6 45 0 8 -10 14 -25 14 -15 0 -25 -6 -25
-14z"/>
<path d="M12525 3830 c-8 -13 5 -13 25 0 13 8 13 10 -2 10 -9 0 -20 -4 -23
-10z"/>
<path d="M6605 3798 c8 -40 31 -66 44 -53 16 16 -11 85 -32 85 -16 0 -18 -5
-12 -32z"/>
<path d="M10676 3801 c-17 -19 -17 -19 3 -14 11 3 26 11 32 19 19 23 -15 18
-35 -5z"/>
<path d="M5595 3760 c-3 -5 1 -10 9 -10 9 0 16 5 16 10 0 6 -4 10 -9 10 -6 0
-13 -4 -16 -10z"/>
<path d="M5475 3749 c-11 -17 1 -21 15 -4 8 9 8 15 2 15 -6 0 -14 -5 -17 -11z"/>
<path d="M6010 3736 c0 -14 5 -26 10 -26 6 0 10 9 10 19 0 11 -4 23 -10 26 -6
4 -10 -5 -10 -19z"/>
<path d="M5337 3734 c-15 -8 -25 -19 -22 -24 9 -15 45 -12 51 5 11 26 0 34
-29 19z"/>
<path d="M7729 3661 c7 -5 10 -14 7 -20 -7 -11 37 -134 56 -158 14 -17 53 -16
67 1 20 24 -34 150 -69 161 -11 4 -18 11 -15 16 4 5 -9 9 -27 9 -23 0 -29 -3
-19 -9z m66 -61 c1 -8 6 -25 13 -37 7 -12 12 -30 11 -40 0 -14 -2 -15 -6 -3
-4 8 -13 21 -20 29 -8 8 -12 22 -10 33 3 10 -2 22 -11 28 -15 9 -15 10 3 8 11
-2 20 -10 20 -18z"/>
<path d="M11360 3615 c0 -18 -36 -20 -76 -5 -32 12 -38 8 -30 -18 8 -23 54
-42 102 -42 33 0 34 1 34 40 0 29 -4 40 -15 40 -8 0 -15 -7 -15 -15z"/>
<path d="M12425 3530 c39 -4 106 -8 150 -8 71 1 75 1 35 9 -25 4 -92 7 -150 7
-103 -1 -104 -1 -35 -8z"/>
<path d="M10225 3510 c-13 -5 -14 -9 -5 -9 8 0 24 4 35 9 13 5 14 9 5 9 -8 0
-24 -4 -35 -9z"/>
<path d="M12884 3510 c115 -15 241 -22 231 -12 -5 5 -73 12 -150 15 -87 3
-118 2 -81 -3z"/>
<path d="M13225 3490 c3 -5 17 -10 31 -10 13 0 24 5 24 10 0 6 -14 10 -31 10
-17 0 -28 -4 -24 -10z"/>
<path d="M13310 3491 c0 -10 63 -15 363 -32 183 -11 231 -10 216 5 -6 6 -133
14 -316 21 -87 3 -182 8 -210 10 -29 3 -53 1 -53 -4z"/>
<path d="M11960 3290 c0 -5 5 -10 10 -10 6 0 10 5 10 10 0 6 -4 10 -10 10 -5
0 -10 -4 -10 -10z"/>
<path d="M5140 3195 c-6 -7 -14 -54 -17 -104 -6 -96 -3 -102 41 -85 22 9 24
189 2 197 -8 3 -20 0 -26 -8z"/>
<path d="M12583 3203 c15 -2 37 -2 50 0 12 2 0 4 -28 4 -27 0 -38 -2 -22 -4z"/>
<path d="M12675 3188 c4 -13 15 -38 24 -55 l16 -33 39 21 c41 21 66 20 66 -5
0 -32 -44 -103 -86 -136 -23 -19 -41 -39 -40 -45 2 -5 -3 -18 -12 -27 -28 -32
5 -19 59 25 52 41 88 76 127 127 l19 24 32 -31 c17 -17 31 -35 31 -40 0 -5 14
-22 30 -38 27 -26 30 -35 30 -90 0 -81 -10 -92 -90 -99 -111 -9 -180 -18 -180
-23 0 -3 11 -14 25 -25 13 -10 24 -24 22 -29 -4 -17 100 -61 178 -75 16 -3 35
-10 41 -15 6 -5 41 -16 77 -23 78 -17 511 -165 515 -177 2 -5 10 -9 18 -9 19
0 65 -30 82 -52 14 -19 48 -23 70 -9 19 12 4 81 -21 102 -11 9 -49 27 -84 40
-35 13 -63 27 -63 32 0 12 114 1 141 -14 36 -19 45 6 62 171 9 85 24 222 33
303 9 81 15 150 12 152 -4 5 -443 33 -578 37 l-95 3 -22 -150 c-12 -82 -24
-170 -27 -195 -5 -59 -22 -100 -40 -100 -8 0 -27 5 -42 12 -25 11 -26 15 -20
63 4 27 7 57 7 65 0 15 12 136 25 258 l6 62 -78 1 c-44 1 -90 2 -104 4 -14 1
-67 6 -118 9 l-94 7 7 -23z m181 -7 c-5 -8 -56 -3 -56 5 0 2 14 4 31 4 16 0
28 -4 25 -9z m889 -63 c-22 -5 -80 -21 -128 -35 -49 -14 -91 -22 -94 -20 -5 5
64 28 167 56 19 5 49 9 65 9 27 0 26 -1 -10 -10z"/>
<path d="M14261 3186 c2 -2 65 -6 139 -8 82 -3 113 -2 80 2 -56 8 -227 13
-219 6z"/>
<path d="M12579 3154 c-18 -22 4 -42 26 -24 19 16 19 26 1 33 -8 3 -20 -1 -27
-9z"/>
<path d="M11830 3114 c-66 -105 -75 -138 -85 -302 l-6 -92 38 -35 c21 -19 44
-35 51 -35 6 0 12 -4 12 -9 0 -11 87 -44 98 -38 4 3 9 56 11 119 1 62 5 116 8
121 13 21 3 129 -16 171 -12 25 -21 47 -21 51 0 11 -53 85 -61 85 -4 0 -17
-16 -29 -36z m120 -230 c0 -8 -4 -12 -10 -9 -5 3 -10 10 -10 16 0 5 5 9 10 9
6 0 10 -7 10 -16z"/>
<path d="M14095 3053 c-3 -38 -18 -160 -31 -273 -40 -328 -41 -345 -38 -351 2
-4 26 -12 52 -19 43 -10 57 -9 113 10 35 12 78 30 95 41 17 10 39 19 47 19 36
0 85 -34 111 -78 25 -41 30 -44 36 -27 4 11 20 127 35 257 31 259 32 252 -24
317 -15 17 -49 60 -76 95 -57 73 -65 76 -216 76 l-97 0 -7 -67z"/>
<path d="M7645 3073 c4 -10 11 -32 16 -50 11 -35 29 -54 29 -29 0 23 -33 96
-43 96 -5 0 -6 -8 -2 -17z"/>
<path d="M7540 3071 c0 -6 5 -13 10 -16 6 -3 10 1 10 9 0 9 -4 16 -10 16 -5 0
-10 -4 -10 -9z"/>
<path d="M7250 3053 c1 -24 28 -97 38 -101 16 -5 15 8 -3 52 -8 20 -15 39 -14
43 0 4 -4 9 -10 11 -6 2 -11 0 -11 -5z"/>
<path d="M7152 3025 c-1 -28 13 -61 20 -49 3 5 0 23 -7 39 -10 23 -13 25 -13
10z"/>
<path d="M6860 2994 c0 -22 7 -49 16 -60 14 -18 15 -16 10 31 -8 63 -26 84
-26 29z"/>
<path d="M6751 2990 c0 -14 7 -47 15 -75 l13 -50 -4 65 c-3 35 -10 69 -15 74
-7 7 -10 2 -9 -14z"/>
<path d="M6457 2993 c-12 -11 -7 -79 6 -98 20 -26 27 -6 20 54 -6 49 -12 59
-26 44z"/>
<path d="M12233 2988 c-13 -21 -52 -541 -41 -560 5 -12 5 -18 -2 -18 -5 0 -10
-4 -10 -10 0 -6 3 -9 8 -8 4 0 25 -7 47 -17 44 -20 152 -26 200 -12 68 20 84
29 78 44 -5 12 -1 14 16 8 20 -6 57 16 45 27 -2 3 2 11 11 18 23 19 18 67 -15
145 -17 38 -30 73 -30 77 0 3 10 8 23 10 34 5 30 49 -6 66 -27 13 -27 15 -10
29 10 8 13 12 6 9 -6 -4 -24 6 -38 21 -27 28 -85 137 -85 159 0 19 -24 23 -50
9 -20 -11 -29 -11 -52 1 -34 17 -84 18 -95 2z m64 -304 c-3 -3 -12 -4 -19 -1
-8 3 -5 6 6 6 11 1 17 -2 13 -5z m43 -4 c0 -5 -4 -10 -10 -10 -5 0 -10 5 -10
10 0 6 5 10 10 10 6 0 10 -4 10 -10z m-33 -152 c-3 -8 -6 -5 -6 6 -1 11 2 17
5 13 3 -3 4 -12 1 -19z"/>
<path d="M6348 2984 c-7 -6 -1 -117 7 -141 2 -7 9 -13 14 -13 6 0 8 21 4 53
-7 71 -17 110 -25 101z"/>
<path d="M7570 2966 c0 -8 7 -16 15 -20 13 -4 14 -2 5 14 -13 23 -20 26 -20 6z"/>
<path d="M5124 2962 c-15 -9 -23 -184 -9 -189 28 -9 43 23 50 110 6 80 5 87
-12 87 -10 0 -23 -4 -29 -8z"/>
<path d="M7170 2933 c0 -13 5 -23 10 -23 13 0 13 11 0 30 -8 12 -10 11 -10 -7z"/>
<path d="M12621 2936 c-1 -12 -6 -16 -16 -12 -16 6 -22 -28 -6 -38 14 -9 33
21 28 46 -3 17 -5 18 -6 4z"/>
<path d="M11361 2885 c-1 -47 46 -75 123 -75 53 0 56 1 56 25 0 19 -5 25 -21
25 -12 0 -23 8 -26 18 -4 15 -12 17 -63 12 -37 -4 -61 -2 -64 5 -2 5 -5 1 -5
-10z"/>
<path d="M10196 2881 c-7 -11 31 -22 50 -14 8 3 11 9 8 14 -7 12 -51 12 -58 0z"/>
<path d="M8066 2867 c3 -10 9 -15 12 -12 3 3 0 11 -7 18 -10 9 -11 8 -5 -6z"/>
<path d="M12614 2836 c-15 -11 -16 -17 -7 -27 9 -9 15 -8 27 4 31 31 16 49
-20 23z"/>
<path d="M7740 2803 c0 -28 27 -98 37 -95 11 3 10 9 -6 65 -13 46 -31 64 -31
30z"/>
<path d="M7623 2797 c3 -9 11 -35 17 -58 7 -24 15 -38 20 -33 12 12 -13 97
-30 102 -9 3 -11 -1 -7 -11z"/>
<path d="M7327 2776 c-8 -21 14 -97 30 -103 24 -9 25 3 7 61 -18 57 -27 67
-37 42z"/>
<path d="M10220 2780 c0 -5 7 -10 15 -10 8 0 15 5 15 10 0 6 -7 10 -15 10 -8
0 -15 -4 -15 -10z"/>
<path d="M7217 2773 c-8 -13 19 -118 29 -113 5 3 8 12 6 20 -1 8 -5 32 -9 53
-6 37 -17 54 -26 40z"/>
<path d="M6910 2703 c0 -57 11 -78 35 -69 18 7 17 33 -4 89 -16 42 -31 32 -31
-20z"/>
<path d="M6800 2711 c0 -51 12 -91 27 -91 12 0 13 9 8 43 -7 41 -21 77 -30 77
-3 0 -5 -13 -5 -29z"/>
<path d="M8126 2707 c4 -15 1 -34 -6 -42 -20 -24 -1 -39 23 -18 19 16 20 16
14 1 -9 -25 38 -78 69 -78 29 0 32 25 4 40 -11 6 -27 24 -35 40 -8 16 -23 31
-33 35 -11 3 -24 15 -30 28 -11 21 -11 20 -6 -6z"/>
<path d="M6485 2708 c-3 -7 -1 -35 3 -63 6 -42 11 -51 31 -53 23 -4 23 -2 16
45 -8 53 -21 83 -36 83 -5 0 -12 -6 -14 -12z"/>
<path d="M8251 2687 c-14 -14 -14 -47 -1 -47 6 0 10 5 10 10 0 6 5 10 10 10 6
0 10 -6 8 -12 -5 -23 33 -68 58 -68 38 0 38 18 0 54 -20 18 -36 38 -36 44 0
14 -37 21 -49 9z"/>
<path d="M8012 2668 c-17 -17 -15 -38 3 -38 8 0 15 5 15 10 0 6 5 10 11 10 6
0 9 -6 6 -12 -6 -17 19 -65 40 -77 11 -6 24 -6 35 0 15 8 13 15 -24 64 -41 55
-63 66 -86 43z"/>
<path d="M7788 2659 c-20 -11 -25 -59 -7 -59 7 0 18 8 25 18 12 15 13 14 14
-13 1 -36 31 -75 59 -75 34 0 32 16 -10 79 -42 62 -51 68 -81 50z"/>
<path d="M7896 2648 c-21 -30 -2 -52 20 -24 14 19 18 16 15 -14 -1 -15 44 -70
57 -70 20 1 36 20 27 33 -5 8 -22 33 -38 56 -31 46 -58 53 -81 19z"/>
<path d="M7664 2635 c-9 -15 -13 -32 -9 -42 6 -16 8 -16 22 5 20 28 37 29 30
0 -8 -30 28 -78 59 -78 31 0 30 15 -6 70 -53 81 -68 88 -96 45z"/>
<path d="M7544 2614 c-13 -19 -14 -28 -5 -37 12 -12 21 -4 35 28 3 6 9 4 15
-5 5 -8 6 -21 1 -29 -10 -19 27 -71 51 -71 36 0 39 24 9 70 -16 25 -34 51 -40
58 -17 20 -48 14 -66 -14z"/>
<path d="M7320 2610 c-21 -21 -27 -64 -11 -74 5 -3 14 8 20 25 6 17 15 28 21
24 13 -8 13 -45 0 -45 -5 0 -10 -7 -10 -17 0 -9 3 -14 6 -10 3 3 16 -6 28 -20
17 -19 28 -24 44 -19 29 10 28 31 -3 68 -14 16 -25 36 -25 43 0 15 -27 45 -41
45 -5 0 -18 -9 -29 -20z"/>
<path d="M7432 2618 c-7 -7 -12 -26 -12 -42 l1 -31 23 29 c25 30 40 23 31 -16
-8 -36 26 -73 59 -64 31 8 32 18 7 54 -10 15 -26 39 -35 55 -18 29 -53 36 -74
15z"/>
<path d="M14848 2573 c7 -3 16 -2 19 1 4 3 -2 6 -13 5 -11 0 -14 -3 -6 -6z"/>
<path d="M14890 2560 c8 -5 24 -9 35 -9 l20 0 -20 9 c-11 5 -27 9 -35 9 -13 1
-13 0 0 -9z"/>
<path d="M7950 2475 c0 -8 2 -15 4 -15 2 0 6 7 10 15 3 8 1 15 -4 15 -6 0 -10
-7 -10 -15z"/>
<path d="M8300 2450 c6 -11 13 -20 16 -20 2 0 0 9 -6 20 -6 11 -13 20 -16 20
-2 0 0 -9 6 -20z"/>
<path d="M7440 2413 c0 -25 1 -26 16 -11 9 9 13 21 10 27 -13 20 -26 11 -26
-16z"/>
<path d="M8222 2416 c2 -16 9 -31 17 -34 10 -3 11 2 6 19 -12 39 -27 48 -23
15z"/>
<path d="M12646 2405 c17 -8 44 -17 60 -20 21 -5 18 -1 -15 14 -24 12 -51 21
-60 20 -9 0 -2 -7 15 -14z"/>
<path d="M10780 2403 c-38 -7 -48 -22 -26 -39 28 -20 83 -18 89 4 4 16 5 16 6
0 0 -10 8 -18 17 -18 23 0 12 22 -22 41 -16 10 -31 17 -34 17 -3 0 -16 -3 -30
-5z"/>
<path d="M15448 2393 c6 -2 18 -2 25 0 6 3 1 5 -13 5 -14 0 -19 -2 -12 -5z"/>
<path d="M7460 2336 c0 -13 7 -26 15 -30 16 -6 20 10 9 38 -9 24 -24 19 -24
-8z"/>
<path d="M15710 2316 c42 -17 58 -20 45 -7 -6 5 -26 12 -45 15 l-35 6 35 -14z"/>
<path d="M7832 2290 c0 -14 2 -19 5 -12 2 6 2 18 0 25 -3 6 -5 1 -5 -13z"/>
<path d="M7860 2301 c0 -5 5 -13 10 -16 6 -3 10 -2 10 4 0 5 -4 13 -10 16 -5
3 -10 2 -10 -4z"/>
<path d="M7520 2131 c0 -12 6 -21 16 -21 9 0 14 7 12 17 -5 25 -28 28 -28 4z"/>
<path d="M11979 1364 c-23 -25 -23 -26 -2 -15 23 12 38 29 31 37 -3 2 -15 -8
-29 -22z"/>
<path d="M11891 1280 c-51 -47 -56 -49 -104 -47 -46 2 -52 0 -53 -19 -1 -12
-4 -26 -8 -32 -3 -6 1 -15 10 -20 14 -8 12 -14 -19 -42 -39 -35 -40 -50 -4
-50 15 0 37 16 61 45 21 25 45 45 54 44 37 -3 44 1 39 22 -6 21 29 89 53 104
9 6 34 45 28 45 -2 -1 -27 -23 -57 -50z"/>
<path d="M11145 1270 c-10 -16 3 -27 41 -34 46 -9 76 11 48 31 -21 15 -80 17
-89 3z"/>
<path d="M9003 833 c9 -2 23 -2 30 0 6 3 -1 5 -18 5 -16 0 -22 -2 -12 -5z"/>
<path d="M11431 581 c-16 -28 -14 -31 15 -31 20 0 25 4 22 22 -4 29 -24 34
-37 9z"/>
<path d="M11810 520 c-8 -5 -39 -7 -69 -3 -40 4 -52 3 -47 -5 5 -8 -1 -12 -16
-12 -13 -1 -34 -8 -48 -16 -23 -14 -17 -15 74 -9 95 6 156 24 156 45 0 13 -30
13 -50 0z"/>
<path d="M11691 394 c-12 -14 -11 -16 4 -12 10 1 20 9 23 16 5 17 -10 15 -27
-4z"/>
<path d="M11790 379 c0 -5 5 -7 10 -4 6 3 10 8 10 11 0 2 -4 4 -10 4 -5 0 -10
-5 -10 -11z"/>
<path d="M10408 243 c7 -3 16 -2 19 1 4 3 -2 6 -13 5 -11 0 -14 -3 -6 -6z"/>
<path d="M10240 226 c0 -9 -4 -16 -10 -16 -5 0 -10 -7 -10 -16 0 -11 8 -14 28
-12 21 2 27 8 27 28 0 16 -6 26 -17 28 -11 2 -18 -3 -18 -12z"/>
<path d="M10225 140 c3 -5 8 -10 11 -10 2 0 4 5 4 10 0 6 -5 10 -11 10 -5 0
-7 -4 -4 -10z"/>
<path d="M10295 140 c3 -5 10 -10 16 -10 5 0 9 5 9 10 0 6 -7 10 -16 10 -8 0
-12 -4 -9 -10z"/>
<path d="M11856 113 c-6 -14 -5 -15 5 -6 7 7 10 15 7 18 -3 3 -9 -2 -12 -12z"/>
<path d="M10960 100 c0 -19 11 -26 23 -14 8 8 -3 34 -14 34 -5 0 -9 -9 -9 -20z"/>
<path d="M10060 101 c0 -5 7 -11 15 -15 9 -3 15 0 15 9 0 8 -7 15 -15 15 -8 0
-15 -4 -15 -9z"/>
<path d="M11805 90 c-3 -5 -4 -14 -1 -19 4 -5 0 -12 -6 -14 -7 -3 -8 -6 -2 -6
18 -2 47 26 40 37 -9 15 -23 15 -31 2z"/>
</g>
</svg>
